<?xml version="1.0" encoding="UTF-8"?>
<svg fill="none" height="1239" id="diagram-Figure_5" style="width: 100%; height: auto;" viewbox="0 0 1424 1239" width="1424" xmlns="http://www.w3.org/2000/svg" xmlns:xlink="http://www.w3.org/1999/xlink">
<g id="Figure 5">
<rect class="pixelated" fill="white" height="1239" width="1424"></rect>
<g id="Group 331">
<g id="Group 66">
<path d="M987.081 330.882L955.61 330.882" id="Line 2" stroke="#888888" stroke-width="6"></path>
<path d="M1006.58 330.884L986.638 342.4L986.638 319.368L1006.58 330.884Z" fill="#888888" id="Polygon 18"></path>
</g>
<g id="Group 81">
<path d="M987.081 330.882L955.61 330.882" id="Line 2_2" stroke="#888888" stroke-width="6"></path>
<path d="M1006.58 330.884L986.638 342.4L986.638 319.368L1006.58 330.884Z" fill="#888888" id="Polygon 18_2"></path>
</g>
<g id="Group 83">
<path d="M987.081 563.149L955.61 563.149" id="Line 2_3" stroke="#888888" stroke-width="6"></path>
<path d="M1006.58 563.151L986.638 574.667L986.638 551.635L1006.58 563.151Z" fill="#888888" id="Polygon 18_3"></path>
</g>
<g id="Group 85">
<path d="M987.081 795.415L955.61 795.416" id="Line 2_4" stroke="#888888" stroke-width="6"></path>
<path d="M1006.58 795.417L986.638 806.933L986.638 783.901L1006.58 795.417Z" fill="#888888" id="Polygon 18_4"></path>
</g>
<g id="Group 196">
<path d="M986.45 1029.07L954.979 1029.07" id="Line 2_5" stroke="#888888" stroke-width="6"></path>
<path d="M1005.95 1029.07L986.007 1040.59L986.007 1017.55L1005.95 1029.07Z" fill="#888888" id="Polygon 18_5"></path>
</g>
<g id="Group 78">
<path d="M987.968 447.015L956.496 447.015" id="Line 3" stroke="#888888" stroke-width="6"></path>
<path d="M1007.47 447.017L987.524 458.533L987.524 435.501L1007.47 447.017Z" fill="#888888" id="Polygon 19"></path>
</g>
<g id="Group 82">
<path d="M987.968 447.015L956.496 447.015" id="Line 3_2" stroke="#888888" stroke-width="6"></path>
<path d="M1007.47 447.017L987.524 458.533L987.524 435.501L1007.47 447.017Z" fill="#888888" id="Polygon 19_2"></path>
</g>
<g id="Group 84">
<path d="M987.968 679.283L956.496 679.283" id="Line 3_3" stroke="#888888" stroke-width="6"></path>
<path d="M1007.47 679.284L987.524 690.8L987.524 667.768L1007.47 679.284Z" fill="#888888" id="Polygon 19_3"></path>
</g>
<g id="Group 86">
<path d="M987.968 911.548L956.496 911.549" id="Line 3_4" stroke="#888888" stroke-width="6"></path>
<path d="M1007.47 911.55L987.524 923.066L987.524 900.034L1007.47 911.55Z" fill="#888888" id="Polygon 19_4"></path>
</g>
<g id="Group 201">
<path d="M984.602 1141.77L953.13 1141.77" id="Line 2_6" stroke="#888888" stroke-width="6"></path>
<path d="M1004.1 1141.77L984.158 1153.29L984.158 1130.25L1004.1 1141.77Z" fill="#888888" id="Polygon 18_6"></path>
</g>
<a href="https://storage.googleapis.com/distill-circuits/inceptionv1-weight-explorer/mixed3a_147.html">
<path class="unit" d="M0 90.8875C0 85.3646 4.47715 80.8875 10 80.8875H98.4079C103.931 80.8875 108.408 85.3646 108.408 90.8875V178.222C108.408 183.745 103.931 188.222 98.4079 188.222H9.99999C4.47714 188.222 0 183.745 0 178.222V90.8875Z" fill="url(#patternFigure_50)" id="mixed3a_147"></path>
</a>
<a href="https://storage.googleapis.com/distill-circuits/inceptionv1-weight-explorer/mixed3a_81.html">
<path class="unit" d="M235.063 90.8875C235.063 85.3646 239.54 80.8875 245.063 80.8875H332.397C337.92 80.8875 342.397 85.3646 342.397 90.8875V178.222C342.397 183.745 337.92 188.222 332.397 188.222H245.063C239.54 188.222 235.063 183.745 235.063 178.222V90.8875Z" fill="url(#patternFigure_51)" id="mixed3a_81"></path>
</a>
<a href="https://storage.googleapis.com/distill-circuits/inceptionv1-weight-explorer/mixed3a_189.html">
<path class="unit" d="M116.995 90.8875C116.995 85.3646 121.472 80.8875 126.995 80.8875H215.403C220.925 80.8875 225.402 85.3646 225.402 90.8875V178.222C225.402 183.745 220.925 188.222 215.402 188.222H126.995C121.472 188.222 116.995 183.745 116.995 178.222V90.8875Z" fill="url(#patternFigure_52)" id="mixed3a_189"></path>
</a>
<a href="https://storage.googleapis.com/distill-circuits/inceptionv1-weight-explorer/mixed3a_104.html">
<path class="unit" d="M352.057 90.8875C352.057 85.3646 356.534 80.8875 362.057 80.8875H450.465C455.988 80.8875 460.465 85.3646 460.465 90.8875V178.222C460.465 183.745 455.988 188.222 450.465 188.222H362.057C356.534 188.222 352.057 183.745 352.057 178.222V90.8875Z" fill="url(#patternFigure_53)" id="mixed3a_104"></path>
</a>
<a href="https://storage.googleapis.com/distill-circuits/inceptionv1-weight-explorer/mixed3a_145.html">
<path class="unit" d="M469.052 90.8875C469.052 85.3646 473.529 80.8875 479.052 80.8875H567.46C572.982 80.8875 577.46 85.3646 577.46 90.8875V178.222C577.46 183.745 572.982 188.222 567.46 188.222H479.052C473.529 188.222 469.052 183.745 469.052 178.222V90.8875Z" fill="url(#patternFigure_54)" id="mixed3a_145"></path>
</a>
<a href="https://storage.googleapis.com/distill-circuits/inceptionv1-weight-explorer/mixed3a_71.html">
<path class="unit" d="M704.115 90.8875C704.115 85.3646 708.592 80.8875 714.115 80.8875H802.523C808.045 80.8875 812.523 85.3646 812.523 90.8875V178.222C812.523 183.745 808.045 188.222 802.523 188.222H714.115C708.592 188.222 704.115 183.745 704.115 178.222V90.8875Z" fill="url(#patternFigure_55)" id="mixed3a_71"></path>
</a>
<a href="https://storage.googleapis.com/distill-circuits/inceptionv1-weight-explorer/mixed3a_95.html">
<path class="unit" d="M586.046 90.8875C586.046 85.3646 590.524 80.8875 596.046 80.8875H684.454C689.977 80.8875 694.454 85.3646 694.454 90.8875V178.222C694.454 183.745 689.977 188.222 684.454 188.222H596.046C590.524 188.222 586.046 183.745 586.046 178.222V90.8875Z" fill="url(#patternFigure_56)" id="mixed3a_95"></path>
</a>
<a href="https://storage.googleapis.com/distill-circuits/inceptionv1-weight-explorer/mixed3a_171.html">
<path class="unit" d="M821.109 90.8875C821.109 85.3646 825.586 80.8875 831.109 80.8875H919.517C925.04 80.8875 929.517 85.3646 929.517 90.8875V178.222C929.517 183.745 925.04 188.222 919.517 188.222H831.109C825.586 188.222 821.109 183.745 821.109 178.222V90.8875Z" fill="url(#patternFigure_57)" id="mixed3a_171"></path>
</a>
<path d="M0.5 401.084C0.5 395.837 4.7533 391.584 10 391.584H98.4079C103.655 391.584 107.908 395.837 107.908 401.084V488.419C107.908 493.665 103.655 497.919 98.4079 497.919H9.99999C4.75329 497.919 0.5 493.665 0.5 488.419V401.084Z" fill="url(#patternFigure_58)" id="imageFigure_5 97" stroke="#717171"></path>
<path d="M0.5 632.927C0.5 627.68 4.7533 623.427 10 623.427H98.4079C103.655 623.427 107.908 627.68 107.908 632.927V720.261C107.908 725.508 103.655 729.761 98.4079 729.761H9.99999C4.75329 729.761 0.5 725.508 0.5 720.261V632.927Z" fill="url(#patternFigure_59)" id="imageFigure_5 109" stroke="#717171"></path>
<path d="M0.5 865.843C0.5 860.596 4.7533 856.343 10 856.343H98.4079C103.655 856.343 107.908 860.596 107.908 865.843V953.177C107.908 958.424 103.655 962.677 98.4079 962.677H9.99999C4.75329 962.677 0.5 958.424 0.5 953.177V865.843Z" fill="url(#patternFigure_510)" id="imageFigure_5 121" stroke="#717171"></path>
<path d="M234.489 1097.69C234.489 1092.44 238.742 1088.19 243.989 1088.19H331.324C336.57 1088.19 340.824 1092.44 340.824 1097.69V1185.02C340.824 1190.27 336.57 1194.52 331.324 1194.52H243.989C238.742 1194.52 234.489 1190.27 234.489 1185.02V1097.69Z" fill="url(#patternFigure_511)" id="imageFigure_5 133" stroke="#717171"></path>
<path d="M0.5 1097.69C0.5 1092.44 4.7533 1088.19 10 1088.19H98.4079C103.655 1088.19 107.908 1092.44 107.908 1097.69V1185.02C107.908 1190.27 103.655 1194.52 98.4079 1194.52H9.99999C4.75329 1194.52 0.5 1190.27 0.5 1185.02V1097.69Z" fill="url(#patternFigure_512)" id="imageFigure_5 145" stroke="#717171"></path>
<path d="M704.615 865.843C704.615 860.596 708.868 856.343 714.115 856.343H802.523C807.769 856.343 812.023 860.596 812.023 865.843V953.177C812.023 958.424 807.769 962.677 802.523 962.677H714.115C708.868 962.677 704.615 958.424 704.615 953.177V865.843Z" fill="url(#patternFigure_513)" id="imageFigure_5 149" stroke="#717171"></path>
<path d="M704.615 632.927C704.615 627.68 708.868 623.427 714.115 623.427H802.523C807.769 623.427 812.023 627.68 812.023 632.927V720.261C812.023 725.508 807.769 729.761 802.523 729.761H714.115C708.868 729.761 704.615 725.508 704.615 720.261V632.927Z" fill="url(#patternFigure_514)" id="imageFigure_5 153" stroke="#717171"></path>
<path d="M704.615 401.084C704.615 395.837 708.868 391.584 714.115 391.584H802.523C807.769 391.584 812.023 395.837 812.023 401.084V488.419C812.023 493.665 807.769 497.919 802.523 497.919H714.115C708.868 497.919 704.615 493.665 704.615 488.419V401.084Z" fill="url(#patternFigure_515)" id="imageFigure_5 157" stroke="#717171"></path>
<path d="M234.489 401.084C234.489 395.837 238.742 391.584 243.989 391.584H331.324C336.57 391.584 340.824 395.837 340.824 401.084V488.419C340.824 493.665 336.57 497.919 331.324 497.919H243.989C238.742 497.919 234.489 493.665 234.489 488.419V401.084Z" fill="url(#patternFigure_516)" id="imageFigure_5 98" stroke="#717171"></path>
<path d="M234.489 632.927C234.489 627.68 238.742 623.427 243.989 623.427H331.324C336.57 623.427 340.824 627.68 340.824 632.927V720.261C340.824 725.508 336.57 729.761 331.324 729.761H243.989C238.742 729.761 234.489 725.508 234.489 720.261V632.927Z" fill="url(#patternFigure_517)" id="imageFigure_5 110" stroke="#717171"></path>
<path d="M234.489 865.843C234.489 860.596 238.742 856.343 243.989 856.343H331.324C336.57 856.343 340.824 860.596 340.824 865.843V953.177C340.824 958.424 336.57 962.677 331.324 962.677H243.989C238.742 962.677 234.489 958.424 234.489 953.177V865.843Z" fill="url(#patternFigure_518)" id="imageFigure_5 122" stroke="#717171"></path>
<path d="M468.479 1097.69C468.479 1092.44 472.732 1088.19 477.979 1088.19H566.387C571.633 1088.19 575.887 1092.44 575.887 1097.69V1185.02C575.887 1190.27 571.633 1194.52 566.387 1194.52H477.979C472.732 1194.52 468.479 1190.27 468.479 1185.02V1097.69Z" fill="url(#patternFigure_519)" id="imageFigure_5 134" stroke="#717171"></path>
<path d="M117.495 401.084C117.495 395.837 121.748 391.584 126.995 391.584H215.403C220.649 391.584 224.902 395.837 224.902 401.084V488.419C224.902 493.665 220.649 497.919 215.402 497.919H126.995C121.748 497.919 117.495 493.665 117.495 488.419V401.084Z" fill="url(#patternFigure_520)" id="imageFigure_5 99" stroke="#717171"></path>
<path d="M117.495 632.927C117.495 627.68 121.748 623.427 126.995 623.427H215.403C220.649 623.427 224.902 627.68 224.902 632.927V720.261C224.902 725.508 220.649 729.761 215.402 729.761H126.995C121.748 729.761 117.495 725.508 117.495 720.261V632.927Z" fill="url(#patternFigure_521)" id="imageFigure_5 111" stroke="#717171"></path>
<path d="M117.495 865.843C117.495 860.596 121.748 856.343 126.995 856.343H215.403C220.649 856.343 224.902 860.596 224.902 865.843V953.177C224.902 958.424 220.649 962.677 215.402 962.677H126.995C121.748 962.677 117.495 958.424 117.495 953.177V865.843Z" fill="url(#patternFigure_522)" id="imageFigure_5 123" stroke="#717171"></path>
<path d="M351.484 1097.69C351.484 1092.44 355.737 1088.19 360.984 1088.19H449.392C454.638 1088.19 458.892 1092.44 458.892 1097.69V1185.02C458.892 1190.27 454.638 1194.52 449.392 1194.52H360.984C355.737 1194.52 351.484 1190.27 351.484 1185.02V1097.69Z" fill="url(#patternFigure_523)" id="imageFigure_5 135" stroke="#717171"></path>
<path d="M117.495 1097.69C117.495 1092.44 121.748 1088.19 126.995 1088.19H215.403C220.649 1088.19 224.902 1092.44 224.902 1097.69V1185.02C224.902 1190.27 220.649 1194.52 215.402 1194.52H126.995C121.748 1194.52 117.495 1190.27 117.495 1185.02V1097.69Z" fill="url(#patternFigure_524)" id="imageFigure_5 146" stroke="#717171"></path>
<path d="M821.609 865.843C821.609 860.596 825.862 856.343 831.109 856.343H919.517C924.764 856.343 929.017 860.596 929.017 865.843V953.177C929.017 958.424 924.764 962.677 919.517 962.677H831.109C825.862 962.677 821.609 958.424 821.609 953.177V865.843Z" fill="url(#patternFigure_525)" id="imageFigure_5 150" stroke="#717171"></path>
<path d="M821.609 632.927C821.609 627.68 825.862 623.427 831.109 623.427H919.517C924.764 623.427 929.017 627.68 929.017 632.927V720.261C929.017 725.508 924.764 729.761 919.517 729.761H831.109C825.862 729.761 821.609 725.508 821.609 720.261V632.927Z" fill="url(#patternFigure_526)" id="imageFigure_5 154" stroke="#717171"></path>
<path d="M821.609 401.084C821.609 395.837 825.862 391.584 831.109 391.584H919.517C924.764 391.584 929.017 395.837 929.017 401.084V488.419C929.017 493.665 924.764 497.919 919.517 497.919H831.109C825.862 497.919 821.609 493.665 821.609 488.419V401.084Z" fill="url(#patternFigure_527)" id="imageFigure_5 158" stroke="#717171"></path>
<path d="M351.484 401.084C351.484 395.837 355.737 391.584 360.984 391.584H449.392C454.638 391.584 458.892 395.837 458.892 401.084V488.419C458.892 493.665 454.638 497.919 449.392 497.919H360.984C355.737 497.919 351.484 493.665 351.484 488.419V401.084Z" fill="url(#patternFigure_528)" id="imageFigure_5 100" stroke="#717171"></path>
<path d="M351.484 632.927C351.484 627.68 355.737 623.427 360.984 623.427H449.392C454.638 623.427 458.892 627.68 458.892 632.927V720.261C458.892 725.508 454.638 729.761 449.392 729.761H360.984C355.737 729.761 351.484 725.508 351.484 720.261V632.927Z" fill="url(#patternFigure_529)" id="imageFigure_5 112" stroke="#717171"></path>
<path d="M351.484 865.843C351.484 860.596 355.737 856.343 360.984 856.343H449.392C454.638 856.343 458.892 860.596 458.892 865.843V953.177C458.892 958.424 454.638 962.677 449.392 962.677H360.984C355.737 962.677 351.484 958.424 351.484 953.177V865.843Z" fill="url(#patternFigure_530)" id="imageFigure_5 124" stroke="#717171"></path>
<path d="M586.546 1097.69C586.546 1092.44 590.8 1088.19 596.046 1088.19H684.454C689.701 1088.19 693.954 1092.44 693.954 1097.69V1185.02C693.954 1190.27 689.701 1194.52 684.454 1194.52H596.046C590.8 1194.52 586.546 1190.27 586.546 1185.02V1097.69Z" fill="url(#patternFigure_531)" id="imageFigure_5 136" stroke="#717171"></path>
<path d="M468.479 401.084C468.479 395.837 472.732 391.584 477.979 391.584H566.387C571.633 391.584 575.887 395.837 575.887 401.084V488.419C575.887 493.665 571.633 497.919 566.387 497.919H477.979C472.732 497.919 468.479 493.665 468.479 488.419V401.084Z" fill="url(#patternFigure_532)" id="imageFigure_5 101" stroke="#717171"></path>
<path d="M468.479 632.927C468.479 627.68 472.732 623.427 477.979 623.427H566.387C571.633 623.427 575.887 627.68 575.887 632.927V720.261C575.887 725.508 571.633 729.761 566.387 729.761H477.979C472.732 729.761 468.479 725.508 468.479 720.261V632.927Z" fill="url(#patternFigure_533)" id="imageFigure_5 113" stroke="#717171"></path>
<path d="M468.479 865.843C468.479 860.596 472.732 856.343 477.979 856.343H566.387C571.633 856.343 575.887 860.596 575.887 865.843V953.177C575.887 958.424 571.633 962.677 566.387 962.677H477.979C472.732 962.677 468.479 958.424 468.479 953.177V865.843Z" fill="url(#patternFigure_534)" id="imageFigure_5 125" stroke="#717171"></path>
<path d="M704.615 1097.69C704.615 1092.44 708.868 1088.19 714.115 1088.19H802.523C807.769 1088.19 812.023 1092.44 812.023 1097.69V1185.02C812.023 1190.27 807.769 1194.52 802.523 1194.52H714.115C708.868 1194.52 704.615 1190.27 704.615 1185.02V1097.69Z" fill="url(#patternFigure_535)" id="imageFigure_5 137" stroke="#717171"></path>
<path d="M586.546 401.084C586.546 395.837 590.8 391.584 596.046 391.584H684.454C689.701 391.584 693.954 395.837 693.954 401.084V488.419C693.954 493.665 689.701 497.919 684.454 497.919H596.046C590.8 497.919 586.546 493.665 586.546 488.419V401.084Z" fill="url(#patternFigure_536)" id="imageFigure_5 102" stroke="#717171"></path>
<path d="M586.546 632.927C586.546 627.68 590.8 623.427 596.046 623.427H684.454C689.701 623.427 693.954 627.68 693.954 632.927V720.261C693.954 725.508 689.701 729.761 684.454 729.761H596.046C590.8 729.761 586.546 725.508 586.546 720.261V632.927Z" fill="url(#patternFigure_537)" id="imageFigure_5 114" stroke="#717171"></path>
<path d="M586.546 865.843C586.546 860.596 590.8 856.343 596.046 856.343H684.454C689.701 856.343 693.954 860.596 693.954 865.843V953.177C693.954 958.424 689.701 962.677 684.454 962.677H596.046C590.8 962.677 586.546 958.424 586.546 953.177V865.843Z" fill="url(#patternFigure_538)" id="imageFigure_5 126" stroke="#717171"></path>
<path d="M821.609 1097.69C821.609 1092.44 825.862 1088.19 831.109 1088.19H919.517C924.764 1088.19 929.017 1092.44 929.017 1097.69V1185.02C929.017 1190.27 924.764 1194.52 919.517 1194.52H831.109C825.862 1194.52 821.609 1190.27 821.609 1185.02V1097.69Z" fill="url(#patternFigure_539)" id="imageFigure_5 138" stroke="#717171"></path>
<path d="M0.5 284.089C0.5 278.843 4.7533 274.589 10 274.589H98.4079C103.655 274.589 107.908 278.843 107.908 284.089V371.424C107.908 376.671 103.655 380.924 98.4079 380.924H9.99999C4.75329 380.924 0.5 376.671 0.5 371.424V284.089Z" fill="url(#patternFigure_540)" id="imageFigure_5 103" stroke="#717171"></path>
<path d="M0.5 517.005C0.5 511.759 4.7533 507.505 10 507.505H98.4079C103.655 507.505 107.908 511.759 107.908 517.005V604.34C107.908 609.587 103.655 613.84 98.4079 613.84H9.99999C4.75329 613.84 0.5 609.587 0.5 604.34V517.005Z" fill="url(#patternFigure_541)" id="imageFigure_5 115" stroke="#717171"></path>
<path d="M0.5 748.848C0.5 743.601 4.7533 739.348 10 739.348H98.4079C103.655 739.348 107.908 743.601 107.908 748.848V836.182C107.908 841.429 103.655 845.682 98.4079 845.682H9.99999C4.75329 845.682 0.5 841.429 0.5 836.182V748.848Z" fill="url(#patternFigure_542)" id="imageFigure_5 127" stroke="#717171"></path>
<path d="M234.489 981.764C234.489 976.517 238.742 972.264 243.989 972.264H331.324C336.57 972.264 340.824 976.517 340.824 981.764V1069.1C340.824 1074.35 336.57 1078.6 331.324 1078.6H243.989C238.742 1078.6 234.489 1074.35 234.489 1069.1V981.764Z" fill="url(#patternFigure_543)" id="imageFigure_5 139" stroke="#717171"></path>
<path d="M0.5 981.764C0.5 976.517 4.7533 972.264 10 972.264H98.4079C103.655 972.264 107.908 976.517 107.908 981.764V1069.1C107.908 1074.35 103.655 1078.6 98.4079 1078.6H9.99999C4.75329 1078.6 0.5 1074.35 0.5 1069.1V981.764Z" fill="url(#patternFigure_544)" id="imageFigure_5 147" stroke="#717171"></path>
<path d="M704.615 748.848C704.615 743.601 708.868 739.348 714.115 739.348H802.523C807.769 739.348 812.023 743.601 812.023 748.848V836.182C812.023 841.429 807.769 845.682 802.523 845.682H714.115C708.868 845.682 704.615 841.429 704.615 836.182V748.848Z" fill="url(#patternFigure_545)" id="imageFigure_5 151" stroke="#717171"></path>
<path d="M704.615 517.005C704.615 511.759 708.868 507.505 714.115 507.505H802.523C807.769 507.505 812.023 511.759 812.023 517.005V604.34C812.023 609.587 807.769 613.84 802.523 613.84H714.115C708.868 613.84 704.615 609.587 704.615 604.34V517.005Z" fill="url(#patternFigure_546)" id="imageFigure_5 155" stroke="#717171"></path>
<path d="M704.615 284.089C704.615 278.843 708.868 274.589 714.115 274.589H802.523C807.769 274.589 812.023 278.843 812.023 284.089V371.424C812.023 376.671 807.769 380.924 802.523 380.924H714.115C708.868 380.924 704.615 376.671 704.615 371.424V284.089Z" fill="url(#patternFigure_547)" id="imageFigure_5 159" stroke="#717171"></path>
<path d="M234.489 284.089C234.489 278.843 238.742 274.589 243.989 274.589H331.324C336.57 274.589 340.824 278.843 340.824 284.089V371.424C340.824 376.671 336.57 380.924 331.324 380.924H243.989C238.742 380.924 234.489 376.671 234.489 371.424V284.089Z" fill="url(#patternFigure_548)" id="imageFigure_5 104" stroke="#717171"></path>
<path d="M234.489 517.005C234.489 511.759 238.742 507.505 243.989 507.505H331.324C336.57 507.505 340.824 511.759 340.824 517.005V604.34C340.824 609.587 336.57 613.84 331.324 613.84H243.989C238.742 613.84 234.489 609.587 234.489 604.34V517.005Z" fill="url(#patternFigure_549)" id="imageFigure_5 116" stroke="#717171"></path>
<path d="M234.489 748.848C234.489 743.601 238.742 739.348 243.989 739.348H331.324C336.57 739.348 340.824 743.601 340.824 748.848V836.182C340.824 841.429 336.57 845.682 331.324 845.682H243.989C238.742 845.682 234.489 841.429 234.489 836.182V748.848Z" fill="url(#patternFigure_550)" id="imageFigure_5 128" stroke="#717171"></path>
<path d="M468.479 981.764C468.479 976.517 472.732 972.264 477.979 972.264H566.387C571.633 972.264 575.887 976.517 575.887 981.764V1069.1C575.887 1074.35 571.633 1078.6 566.387 1078.6H477.979C472.732 1078.6 468.479 1074.35 468.479 1069.1V981.764Z" fill="url(#patternFigure_551)" id="imageFigure_5 140" stroke="#717171"></path>
<path d="M117.495 284.089C117.495 278.843 121.748 274.589 126.995 274.589H215.403C220.649 274.589 224.902 278.843 224.902 284.089V371.424C224.902 376.671 220.649 380.924 215.402 380.924H126.995C121.748 380.924 117.495 376.671 117.495 371.424V284.089Z" fill="url(#patternFigure_552)" id="imageFigure_5 105" stroke="#717171"></path>
<path d="M117.495 517.005C117.495 511.759 121.748 507.505 126.995 507.505H215.403C220.649 507.505 224.902 511.759 224.902 517.005V604.34C224.902 609.587 220.649 613.84 215.402 613.84H126.995C121.748 613.84 117.495 609.587 117.495 604.34V517.005Z" fill="url(#patternFigure_553)" id="imageFigure_5 117" stroke="#717171"></path>
<path d="M117.495 748.848C117.495 743.601 121.748 739.348 126.995 739.348H215.403C220.649 739.348 224.902 743.601 224.902 748.848V836.182C224.902 841.429 220.649 845.682 215.402 845.682H126.995C121.748 845.682 117.495 841.429 117.495 836.182V748.848Z" fill="url(#patternFigure_554)" id="imageFigure_5 129" stroke="#717171"></path>
<path d="M351.484 981.764C351.484 976.517 355.737 972.264 360.984 972.264H449.392C454.638 972.264 458.892 976.517 458.892 981.764V1069.1C458.892 1074.35 454.638 1078.6 449.392 1078.6H360.984C355.737 1078.6 351.484 1074.35 351.484 1069.1V981.764Z" fill="url(#patternFigure_555)" id="imageFigure_5 141" stroke="#717171"></path>
<path d="M117.495 981.764C117.495 976.517 121.748 972.264 126.995 972.264H215.403C220.649 972.264 224.902 976.517 224.902 981.764V1069.1C224.902 1074.35 220.649 1078.6 215.402 1078.6H126.995C121.748 1078.6 117.495 1074.35 117.495 1069.1V981.764Z" fill="url(#patternFigure_556)" id="imageFigure_5 148" stroke="#717171"></path>
<path d="M821.609 748.848C821.609 743.601 825.862 739.348 831.109 739.348H919.517C924.764 739.348 929.017 743.601 929.017 748.848V836.182C929.017 841.429 924.764 845.682 919.517 845.682H831.109C825.862 845.682 821.609 841.429 821.609 836.182V748.848Z" fill="url(#patternFigure_557)" id="imageFigure_5 152" stroke="#717171"></path>
<path d="M821.609 517.005C821.609 511.759 825.862 507.505 831.109 507.505H919.517C924.764 507.505 929.017 511.759 929.017 517.005V604.34C929.017 609.587 924.764 613.84 919.517 613.84H831.109C825.862 613.84 821.609 609.587 821.609 604.34V517.005Z" fill="url(#patternFigure_558)" id="imageFigure_5 156" stroke="#717171"></path>
<path d="M821.609 284.089C821.609 278.843 825.862 274.589 831.109 274.589H919.517C924.764 274.589 929.017 278.843 929.017 284.089V371.424C929.017 376.671 924.764 380.924 919.517 380.924H831.109C825.862 380.924 821.609 376.671 821.609 371.424V284.089Z" fill="url(#patternFigure_559)" id="imageFigure_5 160" stroke="#717171"></path>
<path d="M351.484 284.089C351.484 278.843 355.737 274.589 360.984 274.589H449.392C454.638 274.589 458.892 278.843 458.892 284.089V371.424C458.892 376.671 454.638 380.924 449.392 380.924H360.984C355.737 380.924 351.484 376.671 351.484 371.424V284.089Z" fill="url(#patternFigure_560)" id="imageFigure_5 106" stroke="#717171"></path>
<path d="M351.484 517.005C351.484 511.759 355.737 507.505 360.984 507.505H449.392C454.638 507.505 458.892 511.759 458.892 517.005V604.34C458.892 609.587 454.638 613.84 449.392 613.84H360.984C355.737 613.84 351.484 609.587 351.484 604.34V517.005Z" fill="url(#patternFigure_561)" id="imageFigure_5 118" stroke="#717171"></path>
<path d="M351.484 748.848C351.484 743.601 355.737 739.348 360.984 739.348H449.392C454.638 739.348 458.892 743.601 458.892 748.848V836.182C458.892 841.429 454.638 845.682 449.392 845.682H360.984C355.737 845.682 351.484 841.429 351.484 836.182V748.848Z" fill="url(#patternFigure_562)" id="imageFigure_5 130" stroke="#717171"></path>
<path d="M586.546 981.764C586.546 976.517 590.8 972.264 596.046 972.264H684.454C689.701 972.264 693.954 976.517 693.954 981.764V1069.1C693.954 1074.35 689.701 1078.6 684.454 1078.6H596.046C590.8 1078.6 586.546 1074.35 586.546 1069.1V981.764Z" fill="url(#patternFigure_563)" id="imageFigure_5 142" stroke="#717171"></path>
<path d="M468.479 284.089C468.479 278.843 472.732 274.589 477.979 274.589H566.387C571.633 274.589 575.887 278.843 575.887 284.089V371.424C575.887 376.671 571.633 380.924 566.387 380.924H477.979C472.732 380.924 468.479 376.671 468.479 371.424V284.089Z" fill="url(#patternFigure_564)" id="imageFigure_5 107" stroke="#717171"></path>
<path d="M468.479 517.005C468.479 511.759 472.732 507.505 477.979 507.505H566.387C571.633 507.505 575.887 511.759 575.887 517.005V604.34C575.887 609.587 571.633 613.84 566.387 613.84H477.979C472.732 613.84 468.479 609.587 468.479 604.34V517.005Z" fill="url(#patternFigure_565)" id="imageFigure_5 119" stroke="#717171"></path>
<path d="M468.479 748.848C468.479 743.601 472.732 739.348 477.979 739.348H566.387C571.633 739.348 575.887 743.601 575.887 748.848V836.182C575.887 841.429 571.633 845.682 566.387 845.682H477.979C472.732 845.682 468.479 841.429 468.479 836.182V748.848Z" fill="url(#patternFigure_566)" id="imageFigure_5 131" stroke="#717171"></path>
<path d="M704.615 981.764C704.615 976.517 708.868 972.264 714.115 972.264H802.523C807.769 972.264 812.023 976.517 812.023 981.764V1069.1C812.023 1074.35 807.769 1078.6 802.523 1078.6H714.115C708.868 1078.6 704.615 1074.35 704.615 1069.1V981.764Z" fill="url(#patternFigure_567)" id="imageFigure_5 143" stroke="#717171"></path>
<path d="M586.546 284.089C586.546 278.843 590.8 274.589 596.046 274.589H684.454C689.701 274.589 693.954 278.843 693.954 284.089V371.424C693.954 376.671 689.701 380.924 684.454 380.924H596.046C590.8 380.924 586.546 376.671 586.546 371.424V284.089Z" fill="url(#patternFigure_568)" id="imageFigure_5 108" stroke="#717171"></path>
<path d="M586.546 517.005C586.546 511.759 590.8 507.505 596.046 507.505H684.454C689.701 507.505 693.954 511.759 693.954 517.005V604.34C693.954 609.587 689.701 613.84 684.454 613.84H596.046C590.8 613.84 586.546 609.587 586.546 604.34V517.005Z" fill="url(#patternFigure_569)" id="imageFigure_5 120" stroke="#717171"></path>
<path d="M586.546 748.848C586.546 743.601 590.8 739.348 596.046 739.348H684.454C689.701 739.348 693.954 743.601 693.954 748.848V836.182C693.954 841.429 689.701 845.682 684.454 845.682H596.046C590.8 845.682 586.546 841.429 586.546 836.182V748.848Z" fill="url(#patternFigure_570)" id="imageFigure_5 132" stroke="#717171"></path>
<path d="M821.609 981.764C821.609 976.517 825.862 972.264 831.109 972.264H919.517C924.764 972.264 929.017 976.517 929.017 981.764V1069.1C929.017 1074.35 924.764 1078.6 919.517 1078.6H831.109C825.862 1078.6 821.609 1074.35 821.609 1069.1V981.764Z" fill="url(#patternFigure_571)" id="imageFigure_5 144" stroke="#717171"></path>
<g id="Group 60">
<path d="M53.1627 237.647L53.1626 206.176" id="Line 2_7" stroke="#888888" stroke-width="6"></path>
<path d="M53.162 257.15L41.6459 237.204L64.6782 237.204L53.162 257.15Z" fill="#888888" id="Polygon 18_7"></path>
</g>
<g id="Group 79">
<path d="M288.534 237.647L288.534 206.176" id="Line 2_8" stroke="#888888" stroke-width="6"></path>
<path d="M288.534 257.15L277.017 237.204L300.05 237.204L288.534 257.15Z" fill="#888888" id="Polygon 18_8"></path>
</g>
<g id="Group 61">
<path d="M171.219 237.647L171.219 206.176" id="Line 2_9" stroke="#888888" stroke-width="6"></path>
<path d="M171.218 257.15L159.702 237.204L182.734 237.204L171.218 257.15Z" fill="#888888" id="Polygon 18_9"></path>
</g>
<g id="Group 80">
<path d="M405.85 237.647L405.85 206.176" id="Line 2_10" stroke="#888888" stroke-width="6"></path>
<path d="M405.85 257.15L394.333 237.204L417.366 237.204L405.85 257.15Z" fill="#888888" id="Polygon 18_10"></path>
</g>
<g id="Group 64">
<path d="M640.481 237.647L640.481 206.176" id="Line 2_11" stroke="#888888" stroke-width="6"></path>
<path d="M640.481 257.15L628.964 237.204L651.997 237.204L640.481 257.15Z" fill="#888888" id="Polygon 18_11"></path>
</g>
<g id="Group 199">
<path d="M875.113 237.647L875.113 206.176" id="Line 2_12" stroke="#888888" stroke-width="6"></path>
<path d="M875.112 257.15L863.596 237.204L886.628 237.204L875.112 257.15Z" fill="#888888" id="Polygon 18_12"></path>
</g>
<g id="Group 198">
<path d="M523.166 237.647L523.166 206.176" id="Line 2_13" stroke="#888888" stroke-width="6"></path>
<path d="M523.165 257.15L511.649 237.204L534.681 237.204L523.165 257.15Z" fill="#888888" id="Polygon 18_13"></path>
</g>
<g id="Group 200">
<path d="M757.797 237.647L757.797 206.176" id="Line 2_14" stroke="#888888" stroke-width="6"></path>
<path d="M757.796 257.15L746.28 237.204L769.312 237.204L757.796 257.15Z" fill="#888888" id="Polygon 18_14"></path>
</g>
<a href="https://storage.googleapis.com/distill-circuits/inceptionv1-weight-explorer/mixed3b_342.html">
<path class="unit" d="M1030.41 747.775C1030.41 742.252 1034.89 737.775 1040.41 737.775H1128.82C1134.34 737.775 1138.82 742.252 1138.82 747.775V836.183C1138.82 841.705 1134.34 846.183 1128.82 846.183H1040.41C1034.89 846.183 1030.41 841.705 1030.41 836.183V747.775Z" fill="url(#patternFigure_572)" id="mixed3b_342"></path>
</a>
<a href="https://storage.googleapis.com/distill-circuits/inceptionv1-weight-explorer/mixed3b_406.html">
<path class="unit" d="M1030.41 401.084C1030.41 395.561 1034.89 391.084 1040.41 391.084H1128.82C1134.34 391.084 1138.82 395.561 1138.82 401.084V487.345C1138.82 492.868 1134.34 497.345 1128.82 497.345H1040.41C1034.89 497.345 1030.41 492.868 1030.41 487.345V401.084Z" fill="url(#patternFigure_573)" id="mixed3b_406"></path>
</a>
<a href="https://storage.googleapis.com/distill-circuits/inceptionv1-weight-explorer/mixed3b_385.html">
<path class="unit" d="M1030.41 517.005C1030.41 511.483 1034.89 507.005 1040.41 507.005H1128.82C1134.34 507.005 1138.82 511.483 1138.82 517.005V605.413C1138.82 610.936 1134.34 615.413 1128.82 615.413H1040.41C1034.89 615.413 1030.41 610.936 1030.41 605.413V517.005Z" fill="url(#patternFigure_574)" id="mixed3b_385"></path>
</a>
<a href="https://storage.googleapis.com/distill-circuits/inceptionv1-weight-explorer/mixed3b_324.html">
<path class="unit" d="M1030.41 864.769C1030.41 859.246 1034.89 854.769 1040.41 854.769H1128.82C1134.34 854.769 1138.82 859.246 1138.82 864.769V952.104C1138.82 957.626 1134.34 962.104 1128.82 962.104H1040.41C1034.89 962.104 1030.41 957.626 1030.41 952.104V864.769Z" fill="url(#patternFigure_575)" id="mixed3b_324"></path>
</a>
<a href="https://storage.googleapis.com/distill-circuits/inceptionv1-weight-explorer/mixed3b_343.html">
<path class="unit" d="M1030.41 632.927C1030.41 627.404 1034.89 622.927 1040.41 622.927H1128.82C1134.34 622.927 1138.82 627.404 1138.82 632.927V721.335C1138.82 726.857 1134.34 731.335 1128.82 731.335H1040.41C1034.89 731.335 1030.41 726.857 1030.41 721.335V632.927Z" fill="url(#patternFigure_576)" id="mixed3b_343"></path>
</a>
<a href="https://storage.googleapis.com/distill-circuits/inceptionv1-weight-explorer/mixed3b_379.html">
<path class="unit" d="M1030.41 284.089C1030.41 278.567 1034.89 274.089 1040.41 274.089H1128.82C1134.34 274.089 1138.82 278.567 1138.82 284.089V371.424C1138.82 376.947 1134.34 381.424 1128.82 381.424H1040.41C1034.89 381.424 1030.41 376.947 1030.41 371.424V284.089Z" fill="url(#patternFigure_577)" id="mixed3b_379"></path>
</a>
<a href="https://storage.googleapis.com/distill-circuits/inceptionv1-weight-explorer/mixed3b_330.html">
<path class="unit" d="M1030.41 981.764C1030.41 976.241 1034.89 971.764 1040.41 971.764H1128.82C1134.34 971.764 1138.82 976.241 1138.82 981.764V1069.1C1138.82 1074.62 1134.34 1079.1 1128.82 1079.1H1040.41C1034.89 1079.1 1030.41 1074.62 1030.41 1069.1V981.764Z" fill="url(#patternFigure_578)" id="mixed3b_330"></path>
</a>
<a href="https://storage.googleapis.com/distill-circuits/inceptionv1-weight-explorer/mixed3b_349.html">
<path class="unit" d="M1030.41 1097.69C1030.41 1092.16 1034.89 1087.69 1040.41 1087.69H1128.82C1134.34 1087.69 1138.82 1092.16 1138.82 1097.69V1185.02C1138.82 1190.54 1134.34 1195.02 1128.82 1195.02H1040.41C1034.89 1195.02 1030.41 1190.54 1030.41 1185.02V1097.69Z" fill="url(#patternFigure_579)" id="mixed3b_349"></path>
</a>
<path d="M278.022 39.9631H269.549V46.8918H279.392V49H266.971V29.4492H279.257V31.5708H269.549V37.855H278.022V39.9631ZM291.181 49C291.038 48.7135 290.922 48.2033 290.832 47.4692C289.677 48.6688 288.299 49.2686 286.696 49.2686C285.264 49.2686 284.087 48.8657 283.165 48.0601C282.252 47.2454 281.795 46.216 281.795 44.9717C281.795 43.4588 282.368 42.2861 283.514 41.4536C284.669 40.6121 286.289 40.1914 288.375 40.1914H290.792V39.05C290.792 38.1817 290.532 37.4924 290.013 36.9822C289.494 36.463 288.728 36.2034 287.717 36.2034C286.831 36.2034 286.088 36.4272 285.488 36.8748C284.888 37.3223 284.588 37.8639 284.588 38.4995H282.091C282.091 37.7744 282.346 37.0762 282.856 36.4048C283.375 35.7244 284.073 35.1873 284.951 34.7935C285.837 34.3996 286.808 34.2026 287.865 34.2026C289.539 34.2026 290.85 34.6234 291.799 35.4648C292.748 36.2974 293.24 37.4477 293.276 38.9158V45.6028C293.276 46.9366 293.446 47.9974 293.786 48.7852V49H291.181ZM287.059 47.1067C287.838 47.1067 288.576 46.9053 289.275 46.5024C289.973 46.0996 290.479 45.5759 290.792 44.9314V41.9504H288.845C285.801 41.9504 284.279 42.8411 284.279 44.6226C284.279 45.4014 284.539 46.0101 285.058 46.4487C285.577 46.8874 286.244 47.1067 287.059 47.1067ZM304.193 36.7002C303.817 36.6375 303.409 36.6062 302.971 36.6062C301.342 36.6062 300.236 37.3 299.654 38.6875V49H297.17V34.4712H299.587L299.627 36.1497C300.442 34.8516 301.597 34.2026 303.092 34.2026C303.575 34.2026 303.942 34.2653 304.193 34.3906V36.7002ZM309.188 49H306.704V28.375H309.188V49ZM317.929 45.3611L321.313 34.4712H323.972L318.131 51.2424C317.227 53.6594 315.79 54.8679 313.82 54.8679L313.35 54.8276L312.424 54.6531V52.6389L313.095 52.6926C313.937 52.6926 314.59 52.5225 315.056 52.1824C315.53 51.8422 315.92 51.2201 316.224 50.3159L316.775 48.8389L311.591 34.4712H314.304L317.929 45.3611ZM347.793 42.7964C347.551 44.8643 346.785 46.4622 345.496 47.5901C344.216 48.7091 342.511 49.2686 340.38 49.2686C338.071 49.2686 336.218 48.4405 334.821 46.7844C333.434 45.1283 332.74 42.9128 332.74 40.1377V38.2578C332.74 36.4406 333.062 34.8427 333.707 33.4641C334.36 32.0855 335.282 31.0292 336.473 30.2952C337.664 29.5522 339.042 29.1807 340.609 29.1807C342.686 29.1807 344.351 29.7625 345.604 30.9263C346.857 32.0811 347.587 33.6834 347.793 35.7334H345.201C344.977 34.1758 344.489 33.0479 343.737 32.3496C342.994 31.6514 341.952 31.3022 340.609 31.3022C338.962 31.3022 337.668 31.911 336.728 33.1284C335.797 34.3459 335.332 36.078 335.332 38.325V40.2183C335.332 42.3398 335.775 44.0273 336.661 45.2805C337.547 46.5338 338.787 47.1604 340.38 47.1604C341.813 47.1604 342.909 46.8381 343.67 46.1936C344.44 45.5401 344.95 44.4077 345.201 42.7964H347.793ZM359.904 47.5632C358.938 48.7001 357.519 49.2686 355.648 49.2686C354.099 49.2686 352.917 48.821 352.103 47.9258C351.297 47.0216 350.89 45.6878 350.881 43.9243V34.4712H353.365V43.8572C353.365 46.0593 354.26 47.1604 356.051 47.1604C357.948 47.1604 359.211 46.4532 359.837 45.0388V34.4712H362.321V49H359.958L359.904 47.5632ZM373.131 36.7002C372.755 36.6375 372.347 36.6062 371.909 36.6062C370.28 36.6062 369.174 37.3 368.592 38.6875V49H366.108V34.4712H368.525L368.565 36.1497C369.38 34.8516 370.535 34.2026 372.03 34.2026C372.513 34.2026 372.88 34.2653 373.131 34.3906V36.7002ZM380.462 45.6296L384.061 34.4712H386.599L381.389 49H379.495L374.232 34.4712H376.77L380.462 45.6296ZM394.83 49.2686C392.861 49.2686 391.258 48.624 390.023 47.335C388.787 46.0369 388.17 44.3048 388.17 42.1384V41.6819C388.17 40.2406 388.443 38.9561 388.989 37.8281C389.544 36.6912 390.314 35.805 391.298 35.1694C392.292 34.5249 393.366 34.2026 394.521 34.2026C396.41 34.2026 397.878 34.8248 398.925 36.0691C399.973 37.3134 400.496 39.0948 400.496 41.4133V42.4473H390.654C390.69 43.8796 391.106 45.0388 391.903 45.925C392.708 46.8023 393.729 47.241 394.964 47.241C395.841 47.241 396.584 47.0619 397.193 46.7039C397.802 46.3458 398.335 45.8713 398.791 45.2805L400.308 46.4622C399.091 48.3331 397.265 49.2686 394.83 49.2686ZM394.521 36.2437C393.518 36.2437 392.677 36.6107 391.997 37.3447C391.316 38.0698 390.896 39.0903 390.734 40.4062H398.012V40.2183C397.941 38.9561 397.601 37.9803 396.992 37.291C396.383 36.5928 395.559 36.2437 394.521 36.2437ZM410.594 49V29.4492H416.113C417.814 29.4492 419.318 29.8252 420.625 30.5771C421.932 31.3291 422.939 32.3988 423.646 33.7864C424.362 35.1739 424.725 36.7673 424.733 38.5667V39.8154C424.733 41.6595 424.375 43.2753 423.659 44.6628C422.952 46.0504 421.936 47.1156 420.611 47.8586C419.295 48.6016 417.76 48.9821 416.005 49H410.594ZM413.172 31.5708V46.8918H415.885C417.872 46.8918 419.416 46.2742 420.517 45.0388C421.627 43.8035 422.182 42.0444 422.182 39.7617V38.6204C422.182 36.4003 421.659 34.6771 420.611 33.4507C419.573 32.2153 418.096 31.5887 416.18 31.5708H413.172ZM434.281 49.2686C432.311 49.2686 430.709 48.624 429.473 47.335C428.238 46.0369 427.62 44.3048 427.62 42.1384V41.6819C427.62 40.2406 427.893 38.9561 428.44 37.8281C428.995 36.6912 429.764 35.805 430.749 35.1694C431.743 34.5249 432.817 34.2026 433.972 34.2026C435.861 34.2026 437.329 34.8248 438.376 36.0691C439.423 37.3134 439.947 39.0948 439.947 41.4133V42.4473H430.105C430.14 43.8796 430.557 45.0388 431.353 45.925C432.159 46.8023 433.18 47.241 434.415 47.241C435.292 47.241 436.035 47.0619 436.644 46.7039C437.253 46.3458 437.785 45.8713 438.242 45.2805L439.759 46.4622C438.542 48.3331 436.716 49.2686 434.281 49.2686ZM433.972 36.2437C432.969 36.2437 432.128 36.6107 431.447 37.3447C430.767 38.0698 430.346 39.0903 430.185 40.4062H437.463V40.2183C437.391 38.9561 437.051 37.9803 436.442 37.291C435.834 36.5928 435.01 36.2437 433.972 36.2437ZM446.204 30.9531V34.4712H448.917V36.3914H446.204V45.4014C446.204 45.9832 446.325 46.4219 446.567 46.7173C446.809 47.0037 447.22 47.147 447.802 47.147C448.089 47.147 448.483 47.0933 448.984 46.9858V49C448.33 49.179 447.695 49.2686 447.077 49.2686C445.967 49.2686 445.13 48.9329 444.566 48.2615C444.002 47.5901 443.72 46.6367 443.72 45.4014V36.3914H441.075V34.4712H443.72V30.9531H446.204ZM457.86 49.2686C455.89 49.2686 454.288 48.624 453.053 47.335C451.817 46.0369 451.2 44.3048 451.2 42.1384V41.6819C451.2 40.2406 451.473 38.9561 452.019 37.8281C452.574 36.6912 453.344 35.805 454.328 35.1694C455.322 34.5249 456.396 34.2026 457.551 34.2026C459.44 34.2026 460.908 34.8248 461.955 36.0691C463.003 37.3134 463.526 39.0948 463.526 41.4133V42.4473H453.684C453.719 43.8796 454.136 45.0388 454.932 45.925C455.738 46.8023 456.759 47.241 457.994 47.241C458.871 47.241 459.614 47.0619 460.223 46.7039C460.832 46.3458 461.364 45.8713 461.821 45.2805L463.338 46.4622C462.121 48.3331 460.295 49.2686 457.86 49.2686ZM457.551 36.2437C456.548 36.2437 455.707 36.6107 455.026 37.3447C454.346 38.0698 453.925 39.0903 453.764 40.4062H461.042V40.2183C460.97 38.9561 460.63 37.9803 460.022 37.291C459.413 36.5928 458.589 36.2437 457.551 36.2437ZM472.241 47.241C473.127 47.241 473.901 46.9724 474.564 46.4353C475.226 45.8982 475.593 45.2268 475.665 44.4211H478.015C477.97 45.2537 477.684 46.0459 477.155 46.7979C476.627 47.5498 475.92 48.1496 475.034 48.5972C474.157 49.0448 473.226 49.2686 472.241 49.2686C470.262 49.2686 468.687 48.6106 467.514 47.2947C466.351 45.9698 465.769 44.1615 465.769 41.8699V41.4536C465.769 40.0392 466.028 38.7815 466.547 37.6804C467.067 36.5793 467.81 35.7244 468.776 35.1157C469.752 34.507 470.903 34.2026 472.227 34.2026C473.857 34.2026 475.208 34.6905 476.283 35.6663C477.366 36.642 477.943 37.9087 478.015 39.4663H475.665C475.593 38.5264 475.235 37.7565 474.591 37.1567C473.955 36.548 473.167 36.2437 472.227 36.2437C470.965 36.2437 469.985 36.7002 469.287 37.6133C468.597 38.5174 468.253 39.8289 468.253 41.5476V42.0176C468.253 43.6916 468.597 44.9806 469.287 45.8848C469.976 46.7889 470.961 47.241 472.241 47.241ZM484.178 30.9531V34.4712H486.89V36.3914H484.178V45.4014C484.178 45.9832 484.299 46.4219 484.541 46.7173C484.782 47.0037 485.194 47.147 485.776 47.147C486.062 47.147 486.456 47.0933 486.958 46.9858V49C486.304 49.179 485.669 49.2686 485.051 49.2686C483.941 49.2686 483.104 48.9329 482.54 48.2615C481.976 47.5901 481.694 46.6367 481.694 45.4014V36.3914H479.049V34.4712H481.694V30.9531H484.178ZM488.878 41.6013C488.878 40.178 489.155 38.8979 489.71 37.761C490.274 36.6241 491.053 35.7468 492.047 35.1292C493.049 34.5115 494.191 34.2026 495.471 34.2026C497.449 34.2026 499.047 34.8875 500.264 36.2571C501.491 37.6267 502.104 39.4484 502.104 41.7222V41.8967C502.104 43.3111 501.831 44.5823 501.285 45.7102C500.748 46.8292 499.974 47.702 498.962 48.3286C497.959 48.9552 496.805 49.2686 495.498 49.2686C493.528 49.2686 491.93 48.5837 490.704 47.2141C489.487 45.8445 488.878 44.0317 488.878 41.7759V41.6013ZM491.375 41.8967C491.375 43.5081 491.747 44.8016 492.49 45.7773C493.242 46.7531 494.244 47.241 495.498 47.241C496.76 47.241 497.762 46.7486 498.505 45.7639C499.248 44.7703 499.62 43.3827 499.62 41.6013C499.62 40.0079 499.24 38.7188 498.479 37.7341C497.727 36.7405 496.724 36.2437 495.471 36.2437C494.244 36.2437 493.255 36.7315 492.503 37.7073C491.751 38.683 491.375 40.0795 491.375 41.8967ZM512.242 36.7002C511.866 36.6375 511.459 36.6062 511.02 36.6062C509.391 36.6062 508.285 37.3 507.703 38.6875V49H505.219V34.4712H507.636L507.677 36.1497C508.491 34.8516 509.646 34.2026 511.141 34.2026C511.624 34.2026 511.991 34.2653 512.242 34.3906V36.7002ZM522.998 45.1462C522.998 44.4749 522.743 43.9556 522.232 43.5886C521.731 43.2126 520.849 42.8904 519.587 42.6218C518.334 42.3533 517.336 42.031 516.593 41.655C515.859 41.2791 515.313 40.8315 514.954 40.3123C514.605 39.7931 514.431 39.1754 514.431 38.4592C514.431 37.2686 514.932 36.2616 515.935 35.438C516.946 34.6144 518.235 34.2026 519.802 34.2026C521.449 34.2026 522.783 34.6278 523.803 35.4783C524.833 36.3287 525.348 37.4163 525.348 38.7412H522.85C522.85 38.0609 522.559 37.4745 521.977 36.9822C521.404 36.4898 520.679 36.2437 519.802 36.2437C518.898 36.2437 518.191 36.4406 517.68 36.8345C517.17 37.2284 516.915 37.7431 516.915 38.3787C516.915 38.9784 517.152 39.4305 517.627 39.7349C518.101 40.0392 518.956 40.3302 520.191 40.6077C521.436 40.8852 522.443 41.2164 523.213 41.6013C523.982 41.9862 524.551 42.4517 524.918 42.9978C525.294 43.5349 525.482 44.1929 525.482 44.9717C525.482 46.2697 524.963 47.3126 523.924 48.1003C522.886 48.8792 521.539 49.2686 519.882 49.2686C518.719 49.2686 517.689 49.0627 516.794 48.6509C515.899 48.2391 515.196 47.6662 514.686 46.9321C514.185 46.1891 513.934 45.3879 513.934 44.5286H516.418C516.463 45.3611 516.794 46.0235 517.412 46.5159C518.038 46.9993 518.862 47.241 519.882 47.241C520.822 47.241 521.574 47.053 522.138 46.677C522.711 46.2921 522.998 45.7818 522.998 45.1462ZM535.445 41.0642C535.445 39.0411 535.714 37.0986 536.251 35.2366C536.797 33.3746 537.607 31.6827 538.681 30.1609C539.755 28.6391 540.87 27.5649 542.025 26.9382L542.535 28.5764C541.228 29.579 540.154 31.1098 539.312 33.1687C538.48 35.2276 538.023 37.5327 537.943 40.084L537.929 41.2253C537.929 44.6807 538.56 47.6796 539.823 50.2219C540.584 51.7437 541.488 52.9343 542.535 53.7937L542.025 55.311C540.834 54.6486 539.697 53.5386 538.614 51.981C536.502 48.9373 535.445 45.2984 535.445 41.0642ZM547.275 34.4712L547.342 36.0825C548.407 34.8293 549.844 34.2026 551.652 34.2026C553.685 34.2026 555.068 34.9814 555.802 36.5391C556.285 35.8408 556.912 35.2769 557.682 34.8472C558.46 34.4175 559.378 34.2026 560.434 34.2026C563.621 34.2026 565.241 35.8901 565.295 39.2649V49H562.811V39.4126C562.811 38.3742 562.574 37.5999 562.099 37.0896C561.625 36.5704 560.828 36.3108 559.709 36.3108C558.787 36.3108 558.022 36.5883 557.413 37.1433C556.804 37.6894 556.451 38.4279 556.352 39.3589V49H553.855V39.4797C553.855 37.3671 552.821 36.3108 550.753 36.3108C549.124 36.3108 548.009 37.0046 547.409 38.3921V49H544.925V34.4712H547.275ZM571.754 49H569.27V34.4712H571.754V49ZM569.068 30.6174C569.068 30.2146 569.189 29.8744 569.431 29.5969C569.681 29.3194 570.048 29.1807 570.532 29.1807C571.015 29.1807 571.382 29.3194 571.633 29.5969C571.884 29.8744 572.009 30.2146 572.009 30.6174C572.009 31.0203 571.884 31.356 571.633 31.6245C571.382 31.8931 571.015 32.0273 570.532 32.0273C570.048 32.0273 569.681 31.8931 569.431 31.6245C569.189 31.356 569.068 31.0203 569.068 30.6174ZM580.616 39.7751L583.839 34.4712H586.739L581.986 41.655L586.887 49H584.013L580.656 43.5618L577.299 49H574.412L579.314 41.655L574.56 34.4712H577.434L580.616 39.7751ZM595.145 49.2686C593.175 49.2686 591.573 48.624 590.338 47.335C589.102 46.0369 588.485 44.3048 588.485 42.1384V41.6819C588.485 40.2406 588.758 38.9561 589.304 37.8281C589.859 36.6912 590.629 35.805 591.613 35.1694C592.607 34.5249 593.681 34.2026 594.836 34.2026C596.725 34.2026 598.193 34.8248 599.24 36.0691C600.288 37.3134 600.811 39.0948 600.811 41.4133V42.4473H590.969C591.005 43.8796 591.421 45.0388 592.218 45.925C593.023 46.8023 594.044 47.241 595.279 47.241C596.156 47.241 596.899 47.0619 597.508 46.7039C598.117 46.3458 598.65 45.8713 599.106 45.2805L600.623 46.4622C599.406 48.3331 597.58 49.2686 595.145 49.2686ZM594.836 36.2437C593.833 36.2437 592.992 36.6107 592.312 37.3447C591.631 38.0698 591.211 39.0903 591.049 40.4062H598.327V40.2183C598.256 38.9561 597.915 37.9803 597.307 37.291C596.698 36.5928 595.874 36.2437 594.836 36.2437ZM603.094 41.6147C603.094 39.3857 603.622 37.5954 604.679 36.2437C605.735 34.883 607.118 34.2026 608.828 34.2026C610.529 34.2026 611.876 34.7845 612.87 35.9482V28.375H615.354V49H613.071L612.95 47.4424C611.956 48.6598 610.573 49.2686 608.801 49.2686C607.118 49.2686 605.744 48.5793 604.679 47.2007C603.622 45.8221 603.094 44.0228 603.094 41.8027V41.6147ZM605.578 41.8967C605.578 43.5439 605.918 44.8329 606.599 45.7639C607.279 46.6949 608.219 47.1604 609.419 47.1604C610.994 47.1604 612.144 46.4532 612.87 45.0388V38.3652C612.127 36.9956 610.985 36.3108 609.445 36.3108C608.228 36.3108 607.279 36.7808 606.599 37.7207C605.918 38.6606 605.578 40.0527 605.578 41.8967ZM622.578 38.0161H624.444C625.617 37.9982 626.539 37.6894 627.21 37.0896C627.882 36.4898 628.217 35.6797 628.217 34.6592C628.217 32.3675 627.076 31.2217 624.793 31.2217C623.719 31.2217 622.86 31.5305 622.215 32.1482C621.58 32.7569 621.262 33.5671 621.262 34.5786H618.778C618.778 33.0299 619.342 31.7454 620.47 30.7249C621.606 29.6954 623.048 29.1807 624.793 29.1807C626.637 29.1807 628.083 29.6685 629.13 30.6443C630.178 31.62 630.702 32.9762 630.702 34.7129C630.702 35.5633 630.424 36.3869 629.869 37.1836C629.323 37.9803 628.575 38.5756 627.627 38.9695C628.701 39.3097 629.529 39.8736 630.111 40.6614C630.702 41.4491 630.997 42.4115 630.997 43.5483C630.997 45.3029 630.424 46.6949 629.278 47.7244C628.132 48.7538 626.642 49.2686 624.807 49.2686C622.972 49.2686 621.477 48.7717 620.322 47.7781C619.176 46.7844 618.603 45.473 618.603 43.8438H621.101C621.101 44.8732 621.436 45.6968 622.108 46.3145C622.779 46.9321 623.679 47.241 624.807 47.241C626.006 47.241 626.924 46.9277 627.559 46.301C628.195 45.6744 628.513 44.7747 628.513 43.6021C628.513 42.4652 628.164 41.5924 627.465 40.9836C626.767 40.3749 625.76 40.0616 624.444 40.0437H622.578V38.0161ZM643.632 49C643.489 48.7135 643.373 48.2033 643.283 47.4692C642.129 48.6688 640.75 49.2686 639.148 49.2686C637.715 49.2686 636.538 48.8657 635.616 48.0601C634.703 47.2454 634.246 46.216 634.246 44.9717C634.246 43.4588 634.819 42.2861 635.965 41.4536C637.12 40.6121 638.74 40.1914 640.826 40.1914H643.243V39.05C643.243 38.1817 642.983 37.4924 642.464 36.9822C641.945 36.463 641.18 36.2034 640.168 36.2034C639.282 36.2034 638.539 36.4272 637.939 36.8748C637.339 37.3223 637.039 37.8639 637.039 38.4995H634.542C634.542 37.7744 634.797 37.0762 635.307 36.4048C635.826 35.7244 636.525 35.1873 637.402 34.7935C638.288 34.3996 639.259 34.2026 640.316 34.2026C641.99 34.2026 643.301 34.6234 644.25 35.4648C645.199 36.2974 645.691 37.4477 645.727 38.9158V45.6028C645.727 46.9366 645.897 47.9974 646.237 48.7852V49H643.632ZM639.51 47.1067C640.289 47.1067 641.027 46.9053 641.726 46.5024C642.424 46.0996 642.93 45.5759 643.243 44.9314V41.9504H641.296C638.252 41.9504 636.731 42.8411 636.731 44.6226C636.731 45.4014 636.99 46.0101 637.509 46.4487C638.029 46.8874 638.696 47.1067 639.51 47.1067ZM655.355 41.1985C655.355 43.1947 655.091 45.1104 654.563 46.9456C654.043 48.7717 653.242 50.4591 652.159 52.0078C651.085 53.5565 649.957 54.6576 648.775 55.311L648.252 53.7937C649.63 52.7374 650.736 51.0992 651.568 48.8792C652.41 46.6501 652.839 44.1794 652.857 41.467V41.0374C652.857 39.1575 652.66 37.4119 652.266 35.8005C651.873 34.1803 651.322 32.7301 650.615 31.45C649.917 30.1698 649.129 29.1717 648.252 28.4556L648.775 26.9382C649.957 27.5917 651.08 28.6838 652.146 30.2146C653.22 31.7454 654.021 33.4328 654.549 35.2769C655.086 37.1209 655.355 39.0948 655.355 41.1985Z" fill="#666666" id="Early Curve Detectors (mixed3a)"></path>
<path d="M1182.02 910.498V918.702H1190.65V921.28H1171.1V909.168H1173.22V918.702H1179.91V910.498H1182.02ZM1189.22 897.795C1190.35 898.762 1190.92 900.181 1190.92 902.052C1190.92 903.6 1190.47 904.782 1189.58 905.597C1188.67 906.402 1187.34 906.81 1185.58 906.819H1176.12V904.335H1185.51C1187.71 904.335 1188.81 903.439 1188.81 901.649C1188.81 899.751 1188.11 898.489 1186.69 897.862H1176.12V895.378H1190.65V897.741L1189.22 897.795ZM1190.65 888.893V891.377H1170.03V888.893H1190.65ZM1190.65 882.206V884.69H1170.03V882.206H1190.65ZM1184.45 856.626C1186.52 856.867 1188.11 857.633 1189.24 858.922C1190.36 860.202 1190.92 861.907 1190.92 864.038C1190.92 866.347 1190.09 868.2 1188.44 869.597C1186.78 870.984 1184.57 871.678 1181.79 871.678H1179.91C1178.09 871.678 1176.5 871.356 1175.12 870.711C1173.74 870.058 1172.68 869.136 1171.95 867.945C1171.2 866.755 1170.83 865.376 1170.83 863.81C1170.83 861.733 1171.42 860.068 1172.58 858.814C1173.73 857.561 1175.34 856.832 1177.39 856.626V859.217C1175.83 859.441 1174.7 859.929 1174 860.681C1173.3 861.424 1172.96 862.467 1172.96 863.81C1172.96 865.457 1173.56 866.75 1174.78 867.69C1176 868.621 1177.73 869.087 1179.98 869.087H1181.87C1183.99 869.087 1185.68 868.644 1186.93 867.757C1188.19 866.871 1188.81 865.631 1188.81 864.038C1188.81 862.606 1188.49 861.509 1187.85 860.748C1187.19 859.978 1186.06 859.468 1184.45 859.217V856.626ZM1189.22 844.514C1190.35 845.481 1190.92 846.9 1190.92 848.771C1190.92 850.319 1190.47 851.501 1189.58 852.315C1188.67 853.121 1187.34 853.528 1185.58 853.537H1176.12V851.053H1185.51C1187.71 851.053 1188.81 850.158 1188.81 848.368C1188.81 846.47 1188.11 845.208 1186.69 844.581H1176.12V842.097H1190.65V844.46L1189.22 844.514ZM1178.35 831.288C1178.29 831.664 1178.26 832.071 1178.26 832.51C1178.26 834.139 1178.95 835.244 1180.34 835.826H1190.65V838.31H1176.12V835.893L1177.8 835.853C1176.5 835.038 1175.86 833.884 1175.86 832.389C1175.86 831.905 1175.92 831.538 1176.04 831.288H1178.35ZM1187.28 823.956L1176.12 820.357V817.82L1190.65 823.03V824.923L1176.12 830.187V827.649L1187.28 823.956ZM1190.92 809.588C1190.92 811.558 1190.28 813.16 1188.99 814.396C1187.69 815.631 1185.96 816.249 1183.79 816.249H1183.33C1181.89 816.249 1180.61 815.976 1179.48 815.429C1178.34 814.874 1177.46 814.105 1176.82 813.12C1176.18 812.126 1175.86 811.052 1175.86 809.897C1175.86 808.008 1176.48 806.54 1177.72 805.493C1178.97 804.446 1180.75 803.922 1183.07 803.922H1184.1V813.764C1185.53 813.729 1186.69 813.312 1187.58 812.516C1188.46 811.71 1188.89 810.689 1188.89 809.454C1188.89 808.577 1188.71 807.834 1188.36 807.225C1188 806.616 1187.52 806.084 1186.93 805.627L1188.11 804.11C1189.99 805.327 1190.92 807.154 1190.92 809.588ZM1177.9 809.897C1177.9 810.9 1178.26 811.741 1179 812.422C1179.72 813.102 1180.74 813.523 1182.06 813.684V806.406H1181.87C1180.61 806.478 1179.63 806.818 1178.94 807.427C1178.25 808.035 1177.9 808.859 1177.9 809.897ZM1190.65 793.824H1171.1V788.305C1171.1 786.605 1171.48 785.101 1172.23 783.794C1172.98 782.487 1174.05 781.48 1175.44 780.772C1176.83 780.056 1178.42 779.694 1180.22 779.685H1181.47C1183.31 779.685 1184.93 780.043 1186.32 780.759C1187.7 781.466 1188.77 782.482 1189.51 783.807C1190.25 785.123 1190.63 786.658 1190.65 788.413V793.824ZM1173.22 791.246H1188.54V788.534C1188.54 786.546 1187.93 785.002 1186.69 783.901C1185.46 782.791 1183.7 782.236 1181.41 782.236H1180.27C1178.05 782.236 1176.33 782.76 1175.1 783.807C1173.87 784.846 1173.24 786.323 1173.22 788.238V791.246ZM1190.92 770.138C1190.92 772.107 1190.28 773.71 1188.99 774.945C1187.69 776.18 1185.96 776.798 1183.79 776.798H1183.33C1181.89 776.798 1180.61 776.525 1179.48 775.979C1178.34 775.424 1177.46 774.654 1176.82 773.669C1176.18 772.676 1175.86 771.601 1175.86 770.447C1175.86 768.558 1176.48 767.09 1177.72 766.042C1178.97 764.995 1180.75 764.471 1183.07 764.471H1184.1V774.314C1185.53 774.278 1186.69 773.862 1187.58 773.065C1188.46 772.259 1188.89 771.239 1188.89 770.003C1188.89 769.126 1188.71 768.383 1188.36 767.774C1188 767.166 1187.52 766.633 1186.93 766.177L1188.11 764.659C1189.99 765.877 1190.92 767.703 1190.92 770.138ZM1177.9 770.447C1177.9 771.449 1178.26 772.291 1179 772.971C1179.72 773.651 1180.74 774.072 1182.06 774.233V766.955H1181.87C1180.61 767.027 1179.63 767.367 1178.94 767.976C1178.25 768.585 1177.9 769.408 1177.9 770.447ZM1172.61 758.214H1176.12V755.501H1178.04V758.214H1187.05C1187.64 758.214 1188.07 758.093 1188.37 757.851C1188.66 757.61 1188.8 757.198 1188.8 756.616C1188.8 756.33 1188.75 755.936 1188.64 755.434H1190.65C1190.83 756.088 1190.92 756.723 1190.92 757.341C1190.92 758.451 1190.59 759.288 1189.91 759.852C1189.24 760.416 1188.29 760.698 1187.05 760.698H1178.04V763.343H1176.12V760.698H1172.61V758.214ZM1190.92 746.559C1190.92 748.528 1190.28 750.13 1188.99 751.366C1187.69 752.601 1185.96 753.219 1183.79 753.219H1183.33C1181.89 753.219 1180.61 752.946 1179.48 752.4C1178.34 751.845 1177.46 751.075 1176.82 750.09C1176.18 749.096 1175.86 748.022 1175.86 746.867C1175.86 744.979 1176.48 743.511 1177.72 742.463C1178.97 741.416 1180.75 740.892 1183.07 740.892H1184.1V750.735C1185.53 750.699 1186.69 750.283 1187.58 749.486C1188.46 748.68 1188.89 747.66 1188.89 746.424C1188.89 745.547 1188.71 744.804 1188.36 744.195C1188 743.587 1187.52 743.054 1186.93 742.597L1188.11 741.08C1189.99 742.298 1190.92 744.124 1190.92 746.559ZM1177.9 746.867C1177.9 747.87 1178.26 748.712 1179 749.392C1179.72 750.072 1180.74 750.493 1182.06 750.654V743.376H1181.87C1180.61 743.448 1179.63 743.788 1178.94 744.397C1178.25 745.005 1177.9 745.829 1177.9 746.867ZM1188.89 732.178C1188.89 731.291 1188.63 730.517 1188.09 729.855C1187.55 729.192 1186.88 728.825 1186.07 728.753V726.404C1186.91 726.448 1187.7 726.735 1188.45 727.263C1189.2 727.791 1189.8 728.498 1190.25 729.385C1190.7 730.262 1190.92 731.193 1190.92 732.178C1190.92 734.156 1190.26 735.731 1188.95 736.904C1187.62 738.068 1185.81 738.65 1183.52 738.65H1183.11C1181.69 738.65 1180.43 738.39 1179.33 737.871C1178.23 737.352 1177.38 736.609 1176.77 735.642C1176.16 734.666 1175.86 733.516 1175.86 732.191C1175.86 730.562 1176.34 729.21 1177.32 728.136C1178.29 727.053 1179.56 726.475 1181.12 726.404V728.753C1180.18 728.825 1179.41 729.183 1178.81 729.828C1178.2 730.463 1177.9 731.251 1177.9 732.191C1177.9 733.453 1178.35 734.433 1179.27 735.132C1180.17 735.821 1181.48 736.166 1183.2 736.166H1183.67C1185.34 736.166 1186.63 735.821 1187.54 735.132C1188.44 734.442 1188.89 733.458 1188.89 732.178ZM1172.61 720.24H1176.12V717.528H1178.04V720.24H1187.05C1187.64 720.24 1188.07 720.119 1188.37 719.878C1188.66 719.636 1188.8 719.224 1188.8 718.642C1188.8 718.356 1188.75 717.962 1188.64 717.461H1190.65C1190.83 718.114 1190.92 718.75 1190.92 719.367C1190.92 720.477 1190.59 721.314 1189.91 721.878C1189.24 722.442 1188.29 722.724 1187.05 722.724H1178.04V725.37H1176.12V722.724H1172.61V720.24ZM1183.25 715.541C1181.83 715.541 1180.55 715.263 1179.41 714.708C1178.28 714.144 1177.4 713.365 1176.78 712.372C1176.16 711.369 1175.86 710.228 1175.86 708.948C1175.86 706.969 1176.54 705.371 1177.91 704.154C1179.28 702.927 1181.1 702.314 1183.38 702.314H1183.55C1184.96 702.314 1186.24 702.587 1187.36 703.133C1188.48 703.67 1189.35 704.445 1189.98 705.456C1190.61 706.459 1190.92 707.614 1190.92 708.921C1190.92 710.89 1190.24 712.488 1188.87 713.714C1187.5 714.932 1185.68 715.541 1183.43 715.541H1183.25ZM1183.55 713.043C1185.16 713.043 1186.45 712.671 1187.43 711.928C1188.41 711.177 1188.89 710.174 1188.89 708.921C1188.89 707.658 1188.4 706.656 1187.42 705.913C1186.42 705.17 1185.04 704.798 1183.25 704.798C1181.66 704.798 1180.37 705.179 1179.39 705.94C1178.39 706.692 1177.9 707.694 1177.9 708.948C1177.9 710.174 1178.38 711.163 1179.36 711.915C1180.34 712.667 1181.73 713.043 1183.55 713.043ZM1178.35 692.176C1178.29 692.552 1178.26 692.96 1178.26 693.398C1178.26 695.027 1178.95 696.133 1180.34 696.715H1190.65V699.199H1176.12V696.782L1177.8 696.742C1176.5 695.927 1175.86 694.772 1175.86 693.277C1175.86 692.794 1175.92 692.427 1176.04 692.176H1178.35ZM1186.8 681.421C1186.13 681.421 1185.61 681.676 1185.24 682.186C1184.87 682.687 1184.54 683.569 1184.27 684.831C1184.01 686.085 1183.68 687.083 1183.31 687.826C1182.93 688.56 1182.48 689.106 1181.97 689.464C1181.45 689.813 1180.83 689.988 1180.11 689.988C1178.92 689.988 1177.91 689.486 1177.09 688.484C1176.27 687.472 1175.86 686.183 1175.86 684.616C1175.86 682.969 1176.28 681.636 1177.13 680.615C1177.98 679.586 1179.07 679.071 1180.39 679.071V681.568C1179.71 681.568 1179.13 681.859 1178.64 682.441C1178.14 683.014 1177.9 683.739 1177.9 684.616C1177.9 685.521 1178.09 686.228 1178.49 686.738C1178.88 687.248 1179.4 687.503 1180.03 687.503C1180.63 687.503 1181.08 687.266 1181.39 686.792C1181.69 686.317 1181.98 685.462 1182.26 684.227C1182.54 682.983 1182.87 681.976 1183.25 681.206C1183.64 680.436 1184.1 679.868 1184.65 679.501C1185.19 679.125 1185.85 678.937 1186.62 678.937C1187.92 678.937 1188.97 679.456 1189.75 680.494C1190.53 681.533 1190.92 682.88 1190.92 684.536C1190.92 685.7 1190.72 686.729 1190.3 687.624C1189.89 688.519 1189.32 689.222 1188.58 689.732C1187.84 690.234 1187.04 690.484 1186.18 690.484V688C1187.01 687.956 1187.68 687.624 1188.17 687.007C1188.65 686.38 1188.89 685.556 1188.89 684.536C1188.89 683.596 1188.71 682.844 1188.33 682.28C1187.94 681.707 1187.43 681.421 1186.8 681.421ZM1182.72 668.973C1180.69 668.973 1178.75 668.705 1176.89 668.167C1175.03 667.621 1173.34 666.811 1171.81 665.737C1170.29 664.663 1169.22 663.548 1168.59 662.394L1170.23 661.883C1171.23 663.19 1172.76 664.264 1174.82 665.106C1176.88 665.938 1179.19 666.395 1181.74 666.476L1182.88 666.489C1186.33 666.489 1189.33 665.858 1191.87 664.596C1193.4 663.835 1194.59 662.931 1195.45 661.883L1196.96 662.394C1196.3 663.584 1195.19 664.721 1193.63 665.804C1190.59 667.917 1186.95 668.973 1182.72 668.973ZM1176.12 657.143L1177.74 657.076C1176.48 656.011 1175.86 654.574 1175.86 652.766C1175.86 650.734 1176.63 649.351 1178.19 648.617C1177.49 648.133 1176.93 647.507 1176.5 646.737C1176.07 645.958 1175.86 645.04 1175.86 643.984C1175.86 640.797 1177.54 639.177 1180.92 639.123H1190.65V641.607H1181.07C1180.03 641.607 1179.25 641.845 1178.74 642.319C1178.22 642.794 1177.96 643.59 1177.96 644.709C1177.96 645.631 1178.24 646.397 1178.8 647.005C1179.34 647.614 1180.08 647.968 1181.01 648.066H1190.65V650.564H1181.13C1179.02 650.564 1177.96 651.598 1177.96 653.666C1177.96 655.295 1178.66 656.409 1180.04 657.009H1190.65V659.493H1176.12V657.143ZM1190.65 632.665V635.149H1176.12V632.665H1190.65ZM1172.27 635.35C1171.87 635.35 1171.53 635.229 1171.25 634.988C1170.97 634.737 1170.83 634.37 1170.83 633.886C1170.83 633.403 1170.97 633.036 1171.25 632.785C1171.53 632.535 1171.87 632.409 1172.27 632.409C1172.67 632.409 1173.01 632.535 1173.28 632.785C1173.55 633.036 1173.68 633.403 1173.68 633.886C1173.68 634.37 1173.55 634.737 1173.28 634.988C1173.01 635.229 1172.67 635.35 1172.27 635.35ZM1181.43 623.802L1176.12 620.58V617.679L1183.31 622.433L1190.65 617.531V620.405L1185.21 623.762L1190.65 627.119V630.006L1183.31 625.105L1176.12 629.858V626.985L1181.43 623.802ZM1190.92 609.273C1190.92 611.243 1190.28 612.845 1188.99 614.081C1187.69 615.316 1185.96 615.934 1183.79 615.934H1183.33C1181.89 615.934 1180.61 615.661 1179.48 615.115C1178.34 614.559 1177.46 613.79 1176.82 612.805C1176.18 611.811 1175.86 610.737 1175.86 609.582C1175.86 607.693 1176.48 606.225 1177.72 605.178C1178.97 604.131 1180.75 603.607 1183.07 603.607H1184.1V613.449C1185.53 613.414 1186.69 612.997 1187.58 612.201C1188.46 611.395 1188.89 610.375 1188.89 609.139C1188.89 608.262 1188.71 607.519 1188.36 606.91C1188 606.301 1187.52 605.769 1186.93 605.312L1188.11 603.795C1189.99 605.012 1190.92 606.839 1190.92 609.273ZM1177.9 609.582C1177.9 610.585 1178.26 611.426 1179 612.107C1179.72 612.787 1180.74 613.208 1182.06 613.369V606.091H1181.87C1180.61 606.163 1179.63 606.503 1178.94 607.112C1178.25 607.72 1177.9 608.544 1177.9 609.582ZM1183.27 601.324C1181.04 601.324 1179.25 600.796 1177.9 599.74C1176.54 598.683 1175.86 597.3 1175.86 595.591C1175.86 593.89 1176.44 592.542 1177.6 591.549H1170.03V589.065H1190.65V591.347L1189.1 591.468C1190.31 592.462 1190.92 593.845 1190.92 595.617C1190.92 597.3 1190.23 598.674 1188.85 599.74C1187.47 600.796 1185.68 601.324 1183.46 601.324H1183.27ZM1183.55 598.84C1185.2 598.84 1186.49 598.5 1187.42 597.82C1188.35 597.139 1188.81 596.199 1188.81 595C1188.81 593.424 1188.11 592.274 1186.69 591.549H1180.02C1178.65 592.292 1177.96 593.433 1177.96 594.973C1177.96 596.19 1178.43 597.139 1179.37 597.82C1180.31 598.5 1181.71 598.84 1183.55 598.84ZM1179.67 581.841V579.974C1179.65 578.801 1179.34 577.879 1178.74 577.208C1178.14 576.537 1177.33 576.201 1176.31 576.201C1174.02 576.201 1172.87 577.342 1172.87 579.625C1172.87 580.699 1173.18 581.559 1173.8 582.203C1174.41 582.839 1175.22 583.156 1176.23 583.156V585.641C1174.68 585.641 1173.4 585.077 1172.38 583.949C1171.35 582.812 1170.83 581.371 1170.83 579.625C1170.83 577.781 1171.32 576.335 1172.3 575.288C1173.27 574.24 1174.63 573.717 1176.37 573.717C1177.22 573.717 1178.04 573.994 1178.84 574.549C1179.63 575.095 1180.23 575.843 1180.62 576.792C1180.96 575.718 1181.53 574.889 1182.31 574.308C1183.1 573.717 1184.06 573.421 1185.2 573.421C1186.96 573.421 1188.35 573.994 1189.38 575.14C1190.41 576.286 1190.92 577.776 1190.92 579.612C1190.92 581.447 1190.42 582.942 1189.43 584.096C1188.44 585.242 1187.13 585.815 1185.5 585.815V583.318C1186.53 583.318 1187.35 582.982 1187.97 582.311C1188.58 581.639 1188.89 580.74 1188.89 579.612C1188.89 578.412 1188.58 577.494 1187.95 576.859C1187.33 576.223 1186.43 575.906 1185.25 575.906C1184.12 575.906 1183.25 576.255 1182.64 576.953C1182.03 577.651 1181.71 578.658 1181.7 579.974V581.841H1179.67ZM1183.55 557.456C1185.77 557.456 1187.56 557.966 1188.91 558.987C1190.25 560.007 1190.92 561.377 1190.92 563.095C1190.92 564.931 1190.27 566.349 1188.97 567.352L1190.65 567.473V569.756H1170.03V567.271H1177.72C1176.48 566.269 1175.86 564.886 1175.86 563.122C1175.86 561.359 1176.52 559.976 1177.86 558.973C1179.19 557.962 1181.02 557.456 1183.33 557.456H1183.55ZM1183.27 559.94C1181.58 559.94 1180.27 560.267 1179.35 560.92C1178.42 561.574 1177.96 562.514 1177.96 563.74C1177.96 565.378 1178.72 566.555 1180.25 567.271H1186.53C1188.05 566.511 1188.81 565.324 1188.81 563.713C1188.81 562.523 1188.35 561.596 1187.43 560.934C1186.51 560.271 1185.12 559.94 1183.27 559.94ZM1182.85 548.58C1184.85 548.58 1186.76 548.844 1188.6 549.372C1190.42 549.892 1192.11 550.693 1193.66 551.776C1195.21 552.85 1196.31 553.978 1196.96 555.16L1195.45 555.683C1194.39 554.305 1192.75 553.199 1190.53 552.367C1188.3 551.525 1185.83 551.096 1183.12 551.078H1182.69C1180.81 551.078 1179.06 551.275 1177.45 551.668C1175.83 552.062 1174.38 552.613 1173.1 553.32C1171.82 554.018 1170.82 554.806 1170.11 555.683L1168.59 555.16C1169.24 553.978 1170.34 552.855 1171.87 551.789C1173.4 550.715 1175.09 549.914 1176.93 549.386C1178.77 548.849 1180.75 548.58 1182.85 548.58Z" fill="#666666" id="Full Curve Detectors (mixed3b)"></path>
</g>
</g>
<defs>
<pattern height="1" id="patternFigure_50" patterncontentunits="objectBoundingBox" width="1">
<use class="pixelated" transform="translate(0 -0.00499998) scale(0.0166667 0.0168333)" xlink:href="#imageFigure_50"></use>
</pattern>
<pattern height="1" id="patternFigure_51" patterncontentunits="objectBoundingBox" width="1">
<use class="pixelated" transform="scale(0.0166667)" xlink:href="#imageFigure_51"></use>
</pattern>
<pattern height="1" id="patternFigure_52" patterncontentunits="objectBoundingBox" width="1">
<use class="pixelated" transform="translate(0 -0.00499998) scale(0.0166667 0.0168333)" xlink:href="#imageFigure_52"></use>
</pattern>
<pattern height="1" id="patternFigure_53" patterncontentunits="objectBoundingBox" width="1">
<use class="pixelated" transform="translate(0 -0.00499998) scale(0.0166667 0.0168333)" xlink:href="#imageFigure_53"></use>
</pattern>
<pattern height="1" id="patternFigure_54" patterncontentunits="objectBoundingBox" width="1">
<use class="pixelated" transform="translate(0 -0.00499998) scale(0.0166667 0.0168333)" xlink:href="#imageFigure_54"></use>
</pattern>
<pattern height="1" id="patternFigure_55" patterncontentunits="objectBoundingBox" width="1">
<use class="pixelated" transform="translate(0 -0.00499998) scale(0.0166667 0.0168333)" xlink:href="#imageFigure_55"></use>
</pattern>
<pattern height="1" id="patternFigure_56" patterncontentunits="objectBoundingBox" width="1">
<use class="pixelated" transform="translate(0 -0.00499998) scale(0.0166667 0.0168333)" xlink:href="#imageFigure_56"></use>
</pattern>
<pattern height="1" id="patternFigure_57" patterncontentunits="objectBoundingBox" width="1">
<use class="pixelated" transform="translate(0 -0.00499998) scale(0.0166667 0.0168333)" xlink:href="#imageFigure_57"></use>
</pattern>
<pattern height="1" id="patternFigure_58" patterncontentunits="objectBoundingBox" width="1">
<use class="pixelated" transform="translate(0 -0.00499998) scale(0.2 0.202)" xlink:href="#imageFigure_58"></use>
</pattern>
<pattern height="1" id="patternFigure_59" patterncontentunits="objectBoundingBox" width="1">
<use class="pixelated" transform="translate(0 -0.00499998) scale(0.2 0.202)" xlink:href="#imageFigure_59"></use>
</pattern>
<pattern height="1" id="patternFigure_510" patterncontentunits="objectBoundingBox" width="1">
<use class="pixelated" transform="translate(0 -0.00499998) scale(0.2 0.202)" xlink:href="#imageFigure_510"></use>
</pattern>
<pattern height="1" id="patternFigure_511" patterncontentunits="objectBoundingBox" width="1">
<use class="pixelated" transform="scale(0.2)" xlink:href="#imageFigure_511"></use>
</pattern>
<pattern height="1" id="patternFigure_512" patterncontentunits="objectBoundingBox" width="1">
<use class="pixelated" transform="translate(0 -0.00499998) scale(0.2 0.202)" xlink:href="#imageFigure_512"></use>
</pattern>
<pattern height="1" id="patternFigure_513" patterncontentunits="objectBoundingBox" width="1">
<use class="pixelated" transform="translate(0 -0.00499998) scale(0.2 0.202)" xlink:href="#imageFigure_513"></use>
</pattern>
<pattern height="1" id="patternFigure_514" patterncontentunits="objectBoundingBox" width="1">
<use class="pixelated" transform="translate(0 -0.00499998) scale(0.2 0.202)" xlink:href="#imageFigure_59"></use>
</pattern>
<pattern height="1" id="patternFigure_515" patterncontentunits="objectBoundingBox" width="1">
<use class="pixelated" transform="translate(0 -0.00499998) scale(0.2 0.202)" xlink:href="#imageFigure_514"></use>
</pattern>
<pattern height="1" id="patternFigure_516" patterncontentunits="objectBoundingBox" width="1">
<use class="pixelated" transform="scale(0.2)" xlink:href="#imageFigure_515"></use>
</pattern>
<pattern height="1" id="patternFigure_517" patterncontentunits="objectBoundingBox" width="1">
<use class="pixelated" transform="scale(0.2)" xlink:href="#imageFigure_516"></use>
</pattern>
<pattern height="1" id="patternFigure_518" patterncontentunits="objectBoundingBox" width="1">
<use class="pixelated" transform="scale(0.2)" xlink:href="#imageFigure_517"></use>
</pattern>
<pattern height="1" id="patternFigure_519" patterncontentunits="objectBoundingBox" width="1">
<use class="pixelated" transform="translate(0 -0.00499998) scale(0.2 0.202)" xlink:href="#imageFigure_518"></use>
</pattern>
<pattern height="1" id="patternFigure_520" patterncontentunits="objectBoundingBox" width="1">
<use class="pixelated" transform="translate(0 -0.00499998) scale(0.2 0.202)" xlink:href="#imageFigure_519"></use>
</pattern>
<pattern height="1" id="patternFigure_521" patterncontentunits="objectBoundingBox" width="1">
<use class="pixelated" transform="translate(0 -0.00499998) scale(0.2 0.202)" xlink:href="#imageFigure_520"></use>
</pattern>
<pattern height="1" id="patternFigure_522" patterncontentunits="objectBoundingBox" width="1">
<use class="pixelated" transform="translate(0 -0.00499998) scale(0.2 0.202)" xlink:href="#imageFigure_521"></use>
</pattern>
<pattern height="1" id="patternFigure_523" patterncontentunits="objectBoundingBox" width="1">
<use class="pixelated" transform="translate(0 -0.00499998) scale(0.2 0.202)" xlink:href="#imageFigure_522"></use>
</pattern>
<pattern height="1" id="patternFigure_524" patterncontentunits="objectBoundingBox" width="1">
<use class="pixelated" transform="translate(0 -0.00499998) scale(0.2 0.202)" xlink:href="#imageFigure_523"></use>
</pattern>
<pattern height="1" id="patternFigure_525" patterncontentunits="objectBoundingBox" width="1">
<use class="pixelated" transform="translate(0 -0.00499998) scale(0.2 0.202)" xlink:href="#imageFigure_513"></use>
</pattern>
<pattern height="1" id="patternFigure_526" patterncontentunits="objectBoundingBox" width="1">
<use class="pixelated" transform="translate(0 -0.00499998) scale(0.2 0.202)" xlink:href="#imageFigure_524"></use>
</pattern>
<pattern height="1" id="patternFigure_527" patterncontentunits="objectBoundingBox" width="1">
<use class="pixelated" transform="translate(0 -0.00499998) scale(0.2 0.202)" xlink:href="#imageFigure_525"></use>
</pattern>
<pattern height="1" id="patternFigure_528" patterncontentunits="objectBoundingBox" width="1">
<use class="pixelated" transform="translate(0 -0.00499998) scale(0.2 0.202)" xlink:href="#imageFigure_526"></use>
</pattern>
<pattern height="1" id="patternFigure_529" patterncontentunits="objectBoundingBox" width="1">
<use class="pixelated" transform="translate(0 -0.00499998) scale(0.2 0.202)" xlink:href="#imageFigure_527"></use>
</pattern>
<pattern height="1" id="patternFigure_530" patterncontentunits="objectBoundingBox" width="1">
<use class="pixelated" transform="translate(0 -0.00499998) scale(0.2 0.202)" xlink:href="#imageFigure_528"></use>
</pattern>
<pattern height="1" id="patternFigure_531" patterncontentunits="objectBoundingBox" width="1">
<use class="pixelated" transform="translate(0 -0.00499998) scale(0.2 0.202)" xlink:href="#imageFigure_529"></use>
</pattern>
<pattern height="1" id="patternFigure_532" patterncontentunits="objectBoundingBox" width="1">
<use class="pixelated" transform="translate(0 -0.00499998) scale(0.2 0.202)" xlink:href="#imageFigure_530"></use>
</pattern>
<pattern height="1" id="patternFigure_533" patterncontentunits="objectBoundingBox" width="1">
<use class="pixelated" transform="translate(0 -0.00499998) scale(0.2 0.202)" xlink:href="#imageFigure_531"></use>
</pattern>
<pattern height="1" id="patternFigure_534" patterncontentunits="objectBoundingBox" width="1">
<use class="pixelated" transform="translate(0 -0.00499998) scale(0.2 0.202)" xlink:href="#imageFigure_532"></use>
</pattern>
<pattern height="1" id="patternFigure_535" patterncontentunits="objectBoundingBox" width="1">
<use class="pixelated" transform="translate(0 -0.00499998) scale(0.2 0.202)" xlink:href="#imageFigure_533"></use>
</pattern>
<pattern height="1" id="patternFigure_536" patterncontentunits="objectBoundingBox" width="1">
<use class="pixelated" transform="translate(0 -0.00499998) scale(0.2 0.202)" xlink:href="#imageFigure_534"></use>
</pattern>
<pattern height="1" id="patternFigure_537" patterncontentunits="objectBoundingBox" width="1">
<use class="pixelated" transform="translate(0 -0.00499998) scale(0.2 0.202)" xlink:href="#imageFigure_535"></use>
</pattern>
<pattern height="1" id="patternFigure_538" patterncontentunits="objectBoundingBox" width="1">
<use class="pixelated" transform="translate(0 -0.00499998) scale(0.2 0.202)" xlink:href="#imageFigure_536"></use>
</pattern>
<pattern height="1" id="patternFigure_539" patterncontentunits="objectBoundingBox" width="1">
<use class="pixelated" transform="translate(0 -0.00499998) scale(0.2 0.202)" xlink:href="#imageFigure_537"></use>
</pattern>
<pattern height="1" id="patternFigure_540" patterncontentunits="objectBoundingBox" width="1">
<use class="pixelated" transform="translate(0 -0.00499998) scale(0.2 0.202)" xlink:href="#imageFigure_538"></use>
</pattern>
<pattern height="1" id="patternFigure_541" patterncontentunits="objectBoundingBox" width="1">
<use class="pixelated" transform="translate(0 -0.00499998) scale(0.2 0.202)" xlink:href="#imageFigure_539"></use>
</pattern>
<pattern height="1" id="patternFigure_542" patterncontentunits="objectBoundingBox" width="1">
<use class="pixelated" transform="translate(0 -0.00499998) scale(0.2 0.202)" xlink:href="#imageFigure_540"></use>
</pattern>
<pattern height="1" id="patternFigure_543" patterncontentunits="objectBoundingBox" width="1">
<use class="pixelated" transform="scale(0.2)" xlink:href="#imageFigure_541"></use>
</pattern>
<pattern height="1" id="patternFigure_544" patterncontentunits="objectBoundingBox" width="1">
<use class="pixelated" transform="translate(0 -0.00499998) scale(0.2 0.202)" xlink:href="#imageFigure_542"></use>
</pattern>
<pattern height="1" id="patternFigure_545" patterncontentunits="objectBoundingBox" width="1">
<use class="pixelated" transform="translate(0 -0.00499998) scale(0.2 0.202)" xlink:href="#imageFigure_543"></use>
</pattern>
<pattern height="1" id="patternFigure_546" patterncontentunits="objectBoundingBox" width="1">
<use class="pixelated" transform="translate(0 -0.00499998) scale(0.2 0.202)" xlink:href="#imageFigure_544"></use>
</pattern>
<pattern height="1" id="patternFigure_547" patterncontentunits="objectBoundingBox" width="1">
<use class="pixelated" transform="translate(0 -0.00499998) scale(0.2 0.202)" xlink:href="#imageFigure_545"></use>
</pattern>
<pattern height="1" id="patternFigure_548" patterncontentunits="objectBoundingBox" width="1">
<use class="pixelated" transform="scale(0.2)" xlink:href="#imageFigure_546"></use>
</pattern>
<pattern height="1" id="patternFigure_549" patterncontentunits="objectBoundingBox" width="1">
<use class="pixelated" transform="scale(0.2)" xlink:href="#imageFigure_547"></use>
</pattern>
<pattern height="1" id="patternFigure_550" patterncontentunits="objectBoundingBox" width="1">
<use class="pixelated" transform="scale(0.2)" xlink:href="#imageFigure_548"></use>
</pattern>
<pattern height="1" id="patternFigure_551" patterncontentunits="objectBoundingBox" width="1">
<use class="pixelated" transform="translate(0 -0.00499998) scale(0.2 0.202)" xlink:href="#imageFigure_549"></use>
</pattern>
<pattern height="1" id="patternFigure_552" patterncontentunits="objectBoundingBox" width="1">
<use class="pixelated" transform="translate(0 -0.00499998) scale(0.2 0.202)" xlink:href="#imageFigure_550"></use>
</pattern>
<pattern height="1" id="patternFigure_553" patterncontentunits="objectBoundingBox" width="1">
<use class="pixelated" transform="translate(0 -0.00499998) scale(0.2 0.202)" xlink:href="#imageFigure_551"></use>
</pattern>
<pattern height="1" id="patternFigure_554" patterncontentunits="objectBoundingBox" width="1">
<use class="pixelated" transform="translate(0 -0.00499998) scale(0.2 0.202)" xlink:href="#imageFigure_552"></use>
</pattern>
<pattern height="1" id="patternFigure_555" patterncontentunits="objectBoundingBox" width="1">
<use class="pixelated" transform="translate(0 -0.00499998) scale(0.2 0.202)" xlink:href="#imageFigure_553"></use>
</pattern>
<pattern height="1" id="patternFigure_556" patterncontentunits="objectBoundingBox" width="1">
<use class="pixelated" transform="translate(0 -0.00499998) scale(0.2 0.202)" xlink:href="#imageFigure_554"></use>
</pattern>
<pattern height="1" id="patternFigure_557" patterncontentunits="objectBoundingBox" width="1">
<use class="pixelated" transform="translate(0 -0.00499998) scale(0.2 0.202)" xlink:href="#imageFigure_555"></use>
</pattern>
<pattern height="1" id="patternFigure_558" patterncontentunits="objectBoundingBox" width="1">
<use class="pixelated" transform="translate(0 -0.00499998) scale(0.2 0.202)" xlink:href="#imageFigure_524"></use>
</pattern>
<pattern height="1" id="patternFigure_559" patterncontentunits="objectBoundingBox" width="1">
<use class="pixelated" transform="translate(0 -0.00499998) scale(0.2 0.202)" xlink:href="#imageFigure_556"></use>
</pattern>
<pattern height="1" id="patternFigure_560" patterncontentunits="objectBoundingBox" width="1">
<use class="pixelated" transform="translate(0 -0.00499998) scale(0.2 0.202)" xlink:href="#imageFigure_557"></use>
</pattern>
<pattern height="1" id="patternFigure_561" patterncontentunits="objectBoundingBox" width="1">
<use class="pixelated" transform="translate(0 -0.00499998) scale(0.2 0.202)" xlink:href="#imageFigure_558"></use>
</pattern>
<pattern height="1" id="patternFigure_562" patterncontentunits="objectBoundingBox" width="1">
<use class="pixelated" transform="translate(0 -0.00499998) scale(0.2 0.202)" xlink:href="#imageFigure_559"></use>
</pattern>
<pattern height="1" id="patternFigure_563" patterncontentunits="objectBoundingBox" width="1">
<use class="pixelated" transform="translate(0 -0.00499998) scale(0.2 0.202)" xlink:href="#imageFigure_560"></use>
</pattern>
<pattern height="1" id="patternFigure_564" patterncontentunits="objectBoundingBox" width="1">
<use class="pixelated" transform="translate(0 -0.00499998) scale(0.2 0.202)" xlink:href="#imageFigure_561"></use>
</pattern>
<pattern height="1" id="patternFigure_565" patterncontentunits="objectBoundingBox" width="1">
<use class="pixelated" transform="translate(0 -0.00499998) scale(0.2 0.202)" xlink:href="#imageFigure_562"></use>
</pattern>
<pattern height="1" id="patternFigure_566" patterncontentunits="objectBoundingBox" width="1">
<use class="pixelated" transform="translate(0 -0.00499998) scale(0.2 0.202)" xlink:href="#imageFigure_563"></use>
</pattern>
<pattern height="1" id="patternFigure_567" patterncontentunits="objectBoundingBox" width="1">
<use class="pixelated" transform="translate(0 -0.00499998) scale(0.2 0.202)" xlink:href="#imageFigure_564"></use>
</pattern>
<pattern height="1" id="patternFigure_568" patterncontentunits="objectBoundingBox" width="1">
<use class="pixelated" transform="translate(0 -0.00499998) scale(0.2 0.202)" xlink:href="#imageFigure_565"></use>
</pattern>
<pattern height="1" id="patternFigure_569" patterncontentunits="objectBoundingBox" width="1">
<use class="pixelated" transform="translate(0 -0.00499998) scale(0.2 0.202)" xlink:href="#imageFigure_566"></use>
</pattern>
<pattern height="1" id="patternFigure_570" patterncontentunits="objectBoundingBox" width="1">
<use class="pixelated" transform="translate(0 -0.00499998) scale(0.2 0.202)" xlink:href="#imageFigure_567"></use>
</pattern>
<pattern height="1" id="patternFigure_571" patterncontentunits="objectBoundingBox" width="1">
<use class="pixelated" transform="translate(0 -0.00499998) scale(0.2 0.202)" xlink:href="#imageFigure_568"></use>
</pattern>
<pattern height="1" id="patternFigure_572" patterncontentunits="objectBoundingBox" width="1">
<use class="pixelated" transform="scale(0.0166667)" xlink:href="#imageFigure_569"></use>
</pattern>
<pattern height="1" id="patternFigure_573" patterncontentunits="objectBoundingBox" width="1">
<use class="pixelated" transform="translate(0 -0.010101) scale(0.0166667 0.0170034)" xlink:href="#imageFigure_570"></use>
</pattern>
<pattern height="1" id="patternFigure_574" patterncontentunits="objectBoundingBox" width="1">
<use class="pixelated" transform="scale(0.0166667)" xlink:href="#imageFigure_571"></use>
</pattern>
<pattern height="1" id="patternFigure_575" patterncontentunits="objectBoundingBox" width="1">
<use class="pixelated" transform="translate(0 -0.00499998) scale(0.0166667 0.0168333)" xlink:href="#imageFigure_572"></use>
</pattern>
<pattern height="1" id="patternFigure_576" patterncontentunits="objectBoundingBox" width="1">
<use class="pixelated" transform="scale(0.0166667)" xlink:href="#imageFigure_573"></use>
</pattern>
<pattern height="1" id="patternFigure_577" patterncontentunits="objectBoundingBox" width="1">
<use class="pixelated" transform="translate(0 -0.00499998) scale(0.0166667 0.0168333)" xlink:href="#imageFigure_574"></use>
</pattern>
<pattern height="1" id="patternFigure_578" patterncontentunits="objectBoundingBox" width="1">
<use class="pixelated" transform="translate(0 -0.00499998) scale(0.0166667 0.0168333)" xlink:href="#imageFigure_575"></use>
</pattern>
<pattern height="1" id="patternFigure_579" patterncontentunits="objectBoundingBox" width="1">
<use class="pixelated" transform="translate(0 -0.00499998) scale(0.0166667 0.0168333)" xlink:href="#imageFigure_576"></use>
</pattern>
<image class="pixelated" data-name="imageFigure_5.png" height="60" id="imageFigure_50" width="60" xlink:href="generated_images/69e1c36c5bfdd58.png"/>
<image class="pixelated" data-name="imageFigure_5.png" height="60" id="imageFigure_51" width="60" xlink:href="generated_images/a9448a32bfbc558.png"/>
<image class="pixelated" data-name="imageFigure_5.png" height="60" id="imageFigure_52" width="60" xlink:href="generated_images/18d0ac6c7927ec7.png"/>
<image class="pixelated" data-name="imageFigure_5.png" height="60" id="imageFigure_53" width="60" xlink:href="generated_images/47e01b7220132c.png"/>
<image class="pixelated" data-name="imageFigure_5.png" height="60" id="imageFigure_54" width="60" xlink:href="generated_images/5c14e66eb5d319.png"/>
<image class="pixelated" data-name="imageFigure_5.png" height="60" id="imageFigure_55" width="60" xlink:href="generated_images/3f627b649a52cf.png"/>
<image class="pixelated" data-name="imageFigure_5.png" height="60" id="imageFigure_56" width="60" xlink:href="generated_images/08d0f6fd865d254.png"/>
<image class="pixelated" data-name="imageFigure_5.png" height="60" id="imageFigure_57" width="60" xlink:href="generated_images/e89ba61d548332c.png"/>
<image class="pixelated" data-name="imageFigure_5.png" height="5" id="imageFigure_58" width="5" xlink:href="generated_images/9257915b463d06.png"/>
<image class="pixelated" data-name="imageFigure_5.png" height="5" id="imageFigure_59" width="5" xlink:href="generated_images/4a1d8e78a0b04.png"/>
<image class="pixelated" data-name="imageFigure_5.png" height="5" id="imageFigure_510" width="5" xlink:href="generated_images/ede7d5c163dcdc.png"/>
<image class="pixelated" data-name="imageFigure_5.png" height="5" id="imageFigure_511" width="5" xlink:href="generated_images/4d7c91f09250d2.png"/>
<image class="pixelated" data-name="imageFigure_5.png" height="5" id="imageFigure_512" width="5" xlink:href="generated_images/f40eda117facf.png"/>
<image class="pixelated" data-name="imageFigure_5.png" height="5" id="imageFigure_513" width="5" xlink:href="generated_images/ed66ee6fe3df9.png"/>
<image class="pixelated" data-name="imageFigure_5.png" height="5" id="imageFigure_514" width="5" xlink:href="generated_images/9d251dbef95846.png"/>
<image class="pixelated" data-name="imageFigure_5.png" height="5" id="imageFigure_515" width="5" xlink:href="generated_images/5f661f1f32ff.png"/>
<image class="pixelated" data-name="imageFigure_5.png" height="5" id="imageFigure_516" width="5" xlink:href="generated_images/419af9363b7c0.png"/>
<image class="pixelated" data-name="imageFigure_5.png" height="5" id="imageFigure_517" width="5" xlink:href="generated_images/c4b8e31cfa5210.png"/>
<image class="pixelated" data-name="imageFigure_5.png" height="5" id="imageFigure_518" width="5" xlink:href="generated_images/bc94ca9a9b6ecd.png"/>
<image class="pixelated" data-name="imageFigure_5.png" height="5" id="imageFigure_519" width="5" xlink:href="generated_images/1fd8115b91cc2.png"/>
<image class="pixelated" data-name="imageFigure_5.png" height="5" id="imageFigure_520" width="5" xlink:href="generated_images/fdf3cd3556295fe.png"/>
<image class="pixelated" data-name="imageFigure_5.png" height="5" id="imageFigure_521" width="5" xlink:href="generated_images/b7270fadfe5ee50.png"/>
<image class="pixelated" data-name="imageFigure_5.png" height="5" id="imageFigure_522" width="5" xlink:href="generated_images/cc519f2b474c654.png"/>
<image class="pixelated" data-name="imageFigure_5.png" height="5" id="imageFigure_523" width="5" xlink:href="generated_images/bda76acd11b8f2.png"/>
<image class="pixelated" data-name="imageFigure_5.png" height="5" id="imageFigure_524" width="5" xlink:href="generated_images/cbc8f9b186490c4.png"/>
<image class="pixelated" data-name="imageFigure_5.png" height="5" id="imageFigure_525" width="5" xlink:href="generated_images/84206c48672f.png"/>
<image class="pixelated" data-name="imageFigure_5.png" height="5" id="imageFigure_526" width="5" xlink:href="generated_images/7233edec953e7a8.png"/>
<image class="pixelated" data-name="imageFigure_5.png" height="5" id="imageFigure_527" width="5" xlink:href="generated_images/f9da7997db63ee.png"/>
<image class="pixelated" data-name="imageFigure_5.png" height="5" id="imageFigure_528" width="5" xlink:href="generated_images/ca0ee82f498684b.png"/>
<image class="pixelated" data-name="imageFigure_5.png" height="5" id="imageFigure_529" width="5" xlink:href="generated_images/b9de90db4e9ca.png"/>
<image class="pixelated" data-name="imageFigure_5.png" height="5" id="imageFigure_530" width="5" xlink:href="generated_images/f31fa9bb4ef3eee.png"/>
<image class="pixelated" data-name="imageFigure_5.png" height="5" id="imageFigure_531" width="5" xlink:href="generated_images/f57595c5ac19117.png"/>
<image class="pixelated" data-name="imageFigure_5.png" height="5" id="imageFigure_532" width="5" xlink:href="generated_images/40eb1f71973db6.png"/>
<image class="pixelated" data-name="imageFigure_5.png" height="5" id="imageFigure_533" width="5" xlink:href="generated_images/b1c2bb12f6b772b.png"/>
<image class="pixelated" data-name="imageFigure_5.png" height="5" id="imageFigure_534" width="5" xlink:href="generated_images/2f7e2574c8ca874.png"/>
<image class="pixelated" data-name="imageFigure_5.png" height="5" id="imageFigure_535" width="5" xlink:href="generated_images/ed646bcf17b4ac.png"/>
<image class="pixelated" data-name="imageFigure_5.png" height="5" id="imageFigure_536" width="5" xlink:href="generated_images/e07face3ca2344a.png"/>
<image class="pixelated" data-name="imageFigure_5.png" height="5" id="imageFigure_537" width="5" xlink:href="generated_images/65af28fd4455c9.png"/>
<image class="pixelated" data-name="imageFigure_5.png" height="5" id="imageFigure_538" width="5" xlink:href="generated_images/5060076f24a9d00.png"/>
<image class="pixelated" data-name="imageFigure_5.png" height="5" id="imageFigure_539" width="5" xlink:href="generated_images/8fc5aa3f4fd747f.png"/>
<image class="pixelated" data-name="imageFigure_5.png" height="5" id="imageFigure_540" width="5" xlink:href="generated_images/a1fe40d5d979528.png"/>
<image class="pixelated" data-name="imageFigure_5.png" height="5" id="imageFigure_541" width="5" xlink:href="generated_images/e5877e2b0e8c256.png"/>
<image class="pixelated" data-name="imageFigure_5.png" height="5" id="imageFigure_542" width="5" xlink:href="generated_images/7c41cc7c742a7a9.png"/>
<image class="pixelated" data-name="imageFigure_5.png" height="5" id="imageFigure_543" width="5" xlink:href="generated_images/cc2c0656221f9f2.png"/>
<image class="pixelated" data-name="imageFigure_5.png" height="5" id="imageFigure_544" width="5" xlink:href="generated_images/8d654bbb62d4de.png"/>
<image class="pixelated" data-name="imageFigure_5.png" height="5" id="imageFigure_545" width="5" xlink:href="generated_images/8366f2cd90a43.png"/>
<image class="pixelated" data-name="imageFigure_5.png" height="5" id="imageFigure_546" width="5" xlink:href="generated_images/eaa045bfedd8cda.png"/>
<image class="pixelated" data-name="imageFigure_5.png" height="5" id="imageFigure_547" width="5" xlink:href="generated_images/ccd9df076dbbf4.png"/>
<image class="pixelated" data-name="imageFigure_5.png" height="5" id="imageFigure_548" width="5" xlink:href="generated_images/2913e4e5e0f74a.png"/>
<image class="pixelated" data-name="imageFigure_5.png" height="5" id="imageFigure_549" width="5" xlink:href="generated_images/5d587c5e774593.png"/>
<image class="pixelated" data-name="imageFigure_5.png" height="5" id="imageFigure_550" width="5" xlink:href="generated_images/5d66f637977764.png"/>
<image class="pixelated" data-name="imageFigure_5.png" height="5" id="imageFigure_551" width="5" xlink:href="generated_images/e877d4688ccc93d.png"/>
<image class="pixelated" data-name="imageFigure_5.png" height="5" id="imageFigure_552" width="5" xlink:href="generated_images/99cfa425bfd88c.png"/>
<image class="pixelated" data-name="imageFigure_5.png" height="5" id="imageFigure_553" width="5" xlink:href="generated_images/fd7af3bbceaad99.png"/>
<image class="pixelated" data-name="imageFigure_5.png" height="5" id="imageFigure_554" width="5" xlink:href="generated_images/f37dde68a0bfc6.png"/>
<image class="pixelated" data-name="imageFigure_5.png" height="5" id="imageFigure_555" width="5" xlink:href="generated_images/654fa02176fb731.png"/>
<image class="pixelated" data-name="imageFigure_5.png" height="5" id="imageFigure_556" width="5" xlink:href="generated_images/5ee47df62b1c90.png"/>
<image class="pixelated" data-name="imageFigure_5.png" height="5" id="imageFigure_557" width="5" xlink:href="generated_images/294ca4effeb1264.png"/>
<image class="pixelated" data-name="imageFigure_5.png" height="5" id="imageFigure_558" width="5" xlink:href="generated_images/b3e135ed35003c0.png"/>
<image class="pixelated" data-name="imageFigure_5.png" height="5" id="imageFigure_559" width="5" xlink:href="generated_images/a246e007737376.png"/>
<image class="pixelated" data-name="imageFigure_5.png" height="5" id="imageFigure_560" width="5" xlink:href="generated_images/3327be77a3fd67a.png"/>
<image class="pixelated" data-name="imageFigure_5.png" height="5" id="imageFigure_561" width="5" xlink:href="generated_images/bf0d4bacdf6d5d.png"/>
<image class="pixelated" data-name="imageFigure_5.png" height="5" id="imageFigure_562" width="5" xlink:href="generated_images/d1fa58b085ee6.png"/>
<image class="pixelated" data-name="imageFigure_5.png" height="5" id="imageFigure_563" width="5" xlink:href="generated_images/d028a6229e25b1b.png"/>
<image class="pixelated" data-name="imageFigure_5.png" height="5" id="imageFigure_564" width="5" xlink:href="generated_images/355d644ea07b08.png"/>
<image class="pixelated" data-name="imageFigure_5.png" height="5" id="imageFigure_565" width="5" xlink:href="generated_images/814844c7ca27e2f.png"/>
<image class="pixelated" data-name="imageFigure_5.png" height="5" id="imageFigure_566" width="5" xlink:href="generated_images/8196c83d27c946.png"/>
<image class="pixelated" data-name="imageFigure_5.png" height="5" id="imageFigure_567" width="5" xlink:href="generated_images/89ea77c5e99bc8.png"/>
<image class="pixelated" data-name="imageFigure_5.png" height="5" id="imageFigure_568" width="5" xlink:href="generated_images/4e165ee242e308.png"/>
<image class="pixelated" data-name="imageFigure_5.png" height="60" id="imageFigure_569" width="60" xlink:href="generated_images/0c993f95958c33.png"/>
<image class="pixelated" data-name="imageFigure_5.png" height="60" id="imageFigure_570" width="60" xlink:href="generated_images/b7e3a53cfd29c5.png"/>
<image class="pixelated" data-name="imageFigure_5.png" height="60" id="imageFigure_571" width="60" xlink:href="generated_images/7bfda7199c67132.png"/>
<image class="pixelated" data-name="imageFigure_5.png" height="60" id="imageFigure_572" width="60" xlink:href="generated_images/c6857ec03fb264.png"/>
<image class="pixelated" data-name="imageFigure_5.png" height="60" id="imageFigure_573" width="60" xlink:href="generated_images/a19936cb333809.png"/>
<image class="pixelated" data-name="imageFigure_5.png" height="60" id="imageFigure_574" width="60" xlink:href="generated_images/9f1e471027d86ad.png"/>
<image class="pixelated" data-name="imageFigure_5.png" height="60" id="imageFigure_575" width="60" xlink:href="generated_images/a48efb06726bf1a.png"/>
<image class="pixelated" data-name="imageFigure_5.png" height="60" id="imageFigure_576" width="60" xlink:href="generated_images/c3bbd4a303ffad.png"/>
</defs>
</svg>