<?xml version="1.0" encoding="UTF-8"?>
<svg fill="none" height="350" id="diagram-Figure_9" style="width: 100%; height: auto;" viewbox="0 0 1424 350" width="1424" xmlns="http://www.w3.org/2000/svg" xmlns:xlink="http://www.w3.org/1999/xlink">
<g id="Figure 9">
<rect class="pixelated" fill="white" height="350" width="1424"></rect>
<g id="Group 333">
<a href="https://storage.googleapis.com/distill-circuits/inceptionv1-weight-explorer/mixed3b_208.html">
<path class="unit" d="M56 58C56 52.4771 60.4772 48 66 48H288C293.523 48 298 52.4772 298 58V280C298 285.523 293.523 290 288 290H66C60.4771 290 56 285.523 56 280V58Z" fill="url(#patternFigure_90)" id="mixed3b_208"></path>
</a>
<g id="Group 332">
<a href="https://storage.googleapis.com/distill-circuits/inceptionv1-weight-explorer/mixed3a_208.html">
<path class="unit" d="M344.304 26C344.304 20.4772 348.781 16 354.304 16H488.734C494.257 16 498.734 20.4772 498.734 26V169.165H344.304V26Z" fill="url(#patternFigure_91)" id="mixed3a_208"></path>
</a>
<a href="https://storage.googleapis.com/distill-circuits/inceptionv1-weight-explorer/mixed3a_210.html">
<path class="unit" d="M511.392 26C511.392 20.4772 515.87 16 521.392 16H655.823C661.346 16 665.823 20.4772 665.823 26V169.165H511.392V26Z" fill="url(#patternFigure_92)" id="mixed3a_210"></path>
</a>
<a href="https://storage.googleapis.com/distill-circuits/inceptionv1-weight-explorer/mixed3a_197.html">
<path class="unit" d="M678.481 26C678.481 20.4772 682.958 16 688.481 16H822.911C828.434 16 832.911 20.4772 832.911 26V169.165H678.481V26Z" fill="url(#patternFigure_93)" id="mixed3a_197"></path>
</a>
<path d="M344.804 169.665H498.234V312.329C498.234 317.576 493.981 321.829 488.734 321.829H354.304C349.057 321.829 344.804 317.576 344.804 312.329V169.665Z" fill="url(#patternFigure_94)" id="imageFigure_9 86" stroke="#717171"></path>
<path d="M511.892 169.665H665.323V312.329C665.323 317.576 661.069 321.829 655.823 321.829H521.392C516.146 321.829 511.892 317.576 511.892 312.329V169.665Z" fill="url(#patternFigure_95)" id="imageFigure_9 91" stroke="#717171"></path>
<path d="M678.981 169.665H832.411V312.329C832.411 317.576 828.158 321.829 822.911 321.829H688.481C683.234 321.829 678.981 317.576 678.981 312.329V169.665Z" fill="url(#patternFigure_96)" id="imageFigure_9 94" stroke="#717171"></path>
<a href="https://storage.googleapis.com/distill-circuits/inceptionv1-weight-explorer/mixed3a_223.html">
<path class="unit" d="M1013 26C1013 20.4772 1017.48 16 1023 16H1157.43C1162.95 16 1167.43 20.4772 1167.43 26V169.165H1013V26Z" fill="url(#patternFigure_97)" id="mixed3a_223"></path>
</a>
<path d="M1013.5 169.665H1166.93V312.329C1166.93 317.576 1162.68 321.829 1157.43 321.829H1023C1017.75 321.829 1013.5 317.576 1013.5 312.329V169.665Z" fill="url(#patternFigure_98)" id="imageFigure_9 95" stroke="#717171"></path>
<a href="https://storage.googleapis.com/distill-circuits/inceptionv1-weight-explorer/mixed3a_214.html">
<path class="unit" d="M845.57 26C845.57 20.4772 850.047 16 855.57 16H990C995.523 16 1000 20.4772 1000 26V169.165H845.57V26Z" fill="url(#patternFigure_99)" id="mixed3a_214"></path>
</a>
<path d="M846.07 169.665H999.5V312.329C999.5 317.576 995.247 321.829 990 321.829H855.57C850.323 321.829 846.07 317.576 846.07 312.329V169.665Z" fill="url(#patternFigure_910)" id="imageFigure_9 83" stroke="#717171"></path>
</g>
</g>
</g>
<defs>
<pattern height="1" id="patternFigure_90" patterncontentunits="objectBoundingBox" width="1">
<use class="pixelated" transform="scale(0.0166667)" xlink:href="#imageFigure_90"></use>
</pattern>
<pattern height="1" id="patternFigure_91" patterncontentunits="objectBoundingBox" width="1">
<use class="pixelated" transform="translate(0 -0.00413223) scale(0.0166667 0.0168044)" xlink:href="#imageFigure_91"></use>
</pattern>
<pattern height="1" id="patternFigure_92" patterncontentunits="objectBoundingBox" width="1">
<use class="pixelated" transform="translate(0 -0.00413223) scale(0.0166667 0.0168044)" xlink:href="#imageFigure_92"></use>
</pattern>
<pattern height="1" id="patternFigure_93" patterncontentunits="objectBoundingBox" width="1">
<use class="pixelated" transform="translate(0 -0.00413223) scale(0.0166667 0.0168044)" xlink:href="#imageFigure_93"></use>
</pattern>
<pattern height="1" id="patternFigure_94" patterncontentunits="objectBoundingBox" width="1">
<use class="pixelated" transform="translate(0 -0.00413223) scale(0.2 0.201653)" xlink:href="#imageFigure_94"></use>
</pattern>
<pattern height="1" id="patternFigure_95" patterncontentunits="objectBoundingBox" width="1">
<use class="pixelated" transform="translate(0 -0.00413223) scale(0.2 0.201653)" xlink:href="#imageFigure_95"></use>
</pattern>
<pattern height="1" id="patternFigure_96" patterncontentunits="objectBoundingBox" width="1">
<use class="pixelated" transform="translate(0 -0.00413223) scale(0.2 0.201653)" xlink:href="#imageFigure_96"></use>
</pattern>
<pattern height="1" id="patternFigure_97" patterncontentunits="objectBoundingBox" width="1">
<use class="pixelated" transform="translate(0 -0.00413223) scale(0.0166667 0.0168044)" xlink:href="#imageFigure_97"></use>
</pattern>
<pattern height="1" id="patternFigure_98" patterncontentunits="objectBoundingBox" width="1">
<use class="pixelated" transform="translate(0 -0.00413223) scale(0.2 0.201653)" xlink:href="#imageFigure_98"></use>
</pattern>
<pattern height="1" id="patternFigure_99" patterncontentunits="objectBoundingBox" width="1">
<use class="pixelated" transform="translate(0 -0.00413223) scale(0.0166667 0.0168044)" xlink:href="#imageFigure_99"></use>
</pattern>
<pattern height="1" id="patternFigure_910" patterncontentunits="objectBoundingBox" width="1">
<use class="pixelated" transform="translate(0 -0.00413223) scale(0.2 0.201653)" xlink:href="#imageFigure_910"></use>
</pattern>
<image class="pixelated" data-name="imageFigure_9.png" height="60" id="imageFigure_90" width="60" xlink:href="generated_images/1cc3b387885061.png"/>
<image class="pixelated" data-name="imageFigure_9.png" height="60" id="imageFigure_91" width="60" xlink:href="generated_images/3e48bbb1731249.png"/>
<image class="pixelated" data-name="imageFigure_9.png" height="60" id="imageFigure_92" width="60" xlink:href="generated_images/83b7db7462732.png"/>
<image class="pixelated" data-name="imageFigure_9.png" height="60" id="imageFigure_93" width="60" xlink:href="generated_images/75220cfd3d81c.png"/>
<image class="pixelated" data-name="imageFigure_9.png" height="5" id="imageFigure_94" width="5" xlink:href="generated_images/ee84be1e827e664.png"/>
<image class="pixelated" data-name="imageFigure_9.png" height="5" id="imageFigure_95" width="5" xlink:href="generated_images/db2e6d37749c9bf.png"/>
<image class="pixelated" data-name="imageFigure_9.png" height="5" id="imageFigure_96" width="5" xlink:href="generated_images/89fafcf102455d.png"/>
<image class="pixelated" data-name="imageFigure_9.png" height="60" id="imageFigure_97" width="60" xlink:href="generated_images/b16a925ca621da.png"/>
<image class="pixelated" data-name="imageFigure_9.png" height="5" id="imageFigure_98" width="5" xlink:href="generated_images/1f321ca571b45.png"/>
<image class="pixelated" data-name="imageFigure_9.png" height="60" id="imageFigure_99" width="60" xlink:href="generated_images/d5de6a61a51cc56.png"/>
<image class="pixelated" data-name="imageFigure_9.png" height="5" id="imageFigure_910" width="5" xlink:href="generated_images/36d9aa161a99d7d.png"/>
</defs>
</svg>