<?xml version="1.0" encoding="UTF-8"?>
<svg viewbox="0 0 888 380" xmlns="http://www.w3.org/2000/svg" xmlns:xlink="http://www.w3.org/1999/xlink"><g id="interface"><g id="style-1-select"><text class="figure-text" dy="1em" x="0" y="0"><tspan style="font-weight: normal;">Style 1</tspan></text><line class="figure-line figure-faded" x1="0" x2="75" y1="1.5em" y2="1.5em"></line><g transform="translate(0, 40)"><image height="75" style="clip-path: inset(0 0 0 0 round 6px);" width="75" x="0" xlink:href="images/style-1-1.jpg" y="0"/><image height="75" style="clip-path: inset(0 0 0 0 round 6px);" width="75" x="0" xlink:href="images/style-1-2.jpg" y="90"/></g></g><g id="style-2-select" transform="translate(810, 0)"><text class="figure-text" dy="1em" x="0" y="0"><tspan style="font-weight: normal;">Style 2</tspan></text><line class="figure-line figure-faded" x1="0" x2="75" y1="1.5em" y2="1.5em"></line><g transform="translate(0, 40)"> w <image height="75" style="clip-path: inset(0 0 0 0 round 6px);" width="75" x="0" xlink:href="images/style-2-1.jpg" y="0"/><image height="75" style="clip-path: inset(0 0 0 0 round 6px);" width="75" x="0" xlink:href="images/style-2-2.jpg" y="90"/></g></g><g id="interpolation" transform="translate(90, 0)"><text class="figure-text" dy="1em" x="0" y="0"><tspan style="font-weight: bold;">Interpolation</tspan></text><line class="figure-line" x1="0" x2="705" y1="1.5em" y2="1.5em"></line><g transform="translate(0, 40)"><image height="165" style="clip-path: inset(0 0 0 0 round 6px);" width="165" x="0" xlink:href="images/stylized-1-1.jpg" y="0"/><image height="165" style="clip-path: inset(0 0 0 0 round 6px);" width="165" x="180" xlink:href="images/stylized-1-2.jpg" y="0"/><image height="165" style="clip-path: inset(0 0 0 0 round 6px);" width="165" x="360" xlink:href="images/stylized-1-3.jpg" y="0"/><image height="165" style="clip-path: inset(0 0 0 0 round 6px);" width="165" x="540" xlink:href="images/stylized-1-4.jpg" y="0"/></g></g><g id="content-select" transform="translate(0, 220)"><text class="figure-text" dy="1em" x="0" y="0"><tspan style="font-weight: normal;">Content Image</tspan></text><line class="figure-line figure-faded" x1="0" x2="980" y1="1.5em" y2="1.5em"></line><g transform="translate(0, 40)"><image height="80" style="clip-path: inset(0 0 0 0 round 6px);" width="80" x="0" xlink:href="images/content-1.jpg" y="0"/><image height="80" style="clip-path: inset(0 0 0 0 round 6px);" width="80" x="100" xlink:href="images/content-2.jpg" y="0"/><image height="80" style="clip-path: inset(0 0 0 0 round 6px);" width="80" x="200" xlink:href="images/content-3.jpg" y="0"/><image height="80" style="clip-path: inset(0 0 0 0 round 6px);" width="80" x="300" xlink:href="images/content-4.jpg" y="0"/></g></g></g></svg>