<?xml version="1.0" encoding="UTF-8"?>
<svg viewbox="0 0 704 300" xmlns="http://www.w3.org/2000/svg" xmlns:xlink="http://www.w3.org/1999/xlink"><defs><path d="M 0 0 C -2.779 1 -5.376 2.445 -7.69 4.28 L -6.14 0 L -7.69 -4.28 C -5.376 -2.445 -2.779 -1 0 0 Z" id="arrow-right"></path><path d="M 0 0 C 1 2.779 2.445 5.376 4.28 7.69 L 0 6.14 L -4.28 7.69 C -2.444 5.376 -1 2.770 0 0 Z" id="arrow-down" transform="rotate(180, 0, 0)"></path><path d="M 0 6 a 6 6 0 0 1 6 -6 l 8 0 a 6 6 0 0 1 6 6 l 0 14 l -20 0 Z" id="column-top"></path><path d="M 0 0 l 20 0 l 0 20 l -20 0 Z" id="column-middle"></path><path d="M 0 0 l 20 0 l 0 14 a 6 6 0 0 1 -6 6 l -8 0 a 6 6 0 0 1 -6 -6 Z" id="column-bottom"></path></defs><text class="figure-text" dy="1em" x="340" y="30"><tspan><tspan style="font-weight: bold;">Conditional scaling</tspan> first maps the </tspan><tspan dy="1.5em" x="340"><tspan style="font-weight: bold;">conditioning representation</tspan> to a </tspan><tspan dy="1.5em" x="340"> scaling vector. </tspan></text><text class="figure-text" dy="1em" x="340" y="200"><tspan> The scaling vector is then multiplied </tspan><tspan dy="1.5em" x="340"> with the input. </tspan></text><g transform="translate(-10, 10)"><text class="figure-text" dy="-0.5em" style="text-anchor: begin;" x="20" y="250">input</text><text class="figure-text" dy="-0.5em" style="text-anchor: begin;" x="605" y="250">output</text><g transform="translate(60, 200)"><use class="figure-filmed-network figure-element" transform="translate(0, 0)" xlink:href="#column-top"></use><use class="figure-filmed-network figure-element" transform="translate(0, 20)" xlink:href="#column-middle"></use><use class="figure-filmed-network figure-element" transform="translate(0, 40)" xlink:href="#column-middle"></use><use class="figure-filmed-network figure-element" transform="translate(0, 60)" xlink:href="#column-bottom"></use></g><path class="figure-line" d="M 80 240 L 300 240"></path><use class="figure-path" transform="translate(300, 240)" xlink:href="#arrow-right"></use><g transform="translate(315, 240)"><circle class="figure-element" r="10"></circle><ellipse class="figure-path" rx="2" ry="2"></ellipse></g><path class="figure-line" d="M 325 240 L 570 240"></path><use class="figure-path" transform="translate(570, 240)" xlink:href="#arrow-right"></use><g transform="translate(575, 200)"><use class="figure-filmed-network figure-element" transform="translate(0, 0)" xlink:href="#column-top"></use><use class="figure-filmed-network figure-element" transform="translate(0, 20)" xlink:href="#column-middle"></use><use class="figure-filmed-network figure-element" transform="translate(0, 40)" xlink:href="#column-middle"></use><use class="figure-filmed-network figure-element" transform="translate(0, 60)" xlink:href="#column-bottom"></use></g><text class="figure-text" dy="-0.5em" style="font-weight: bold;" x="20" y="60"><tspan>conditioning</tspan><tspan dy="1.5em" x="20">representation</tspan></text><g transform="translate(170, 0)"><rect class="figure-film-generator figure-element figure-box" height="120" width="40"></rect><text class="figure-text" dy="0.4em" style="text-anchor: middle;" transform="rotate(-90, 20, 60)" x="20" y="60">linear</text></g><g transform="translate(305, 20)"><use class="figure-film-generator figure-element" transform="translate(0, 0)" xlink:href="#column-top"></use><use class="figure-film-generator figure-element" transform="translate(0, 20)" xlink:href="#column-middle"></use><use class="figure-film-generator figure-element" transform="translate(0, 40)" xlink:href="#column-middle"></use><use class="figure-film-generator figure-element" transform="translate(0, 60)" xlink:href="#column-bottom"></use></g><path class="figure-line" d="M 120 60 L 165 60"></path><use class="figure-path" transform="translate(165, 60)" xlink:href="#arrow-right"></use><path class="figure-line" d="M 210 60 L 300 60"></path><use class="figure-path" transform="translate(300, 60)" xlink:href="#arrow-right"></use><path class="figure-line" d="M 315 100 L 315 225"></path><use class="figure-path" transform="translate(315, 225)" xlink:href="#arrow-down"></use></g></svg>